<svg width="339" height="295" viewBox="0 0 339 295" fill="none" xmlns="http://www.w3.org/2000/svg">
<path d="M320.02 61.1613L92.1054 1.07498C85.3357 -0.709763 78.4518 0.437324 72.8793 3.68535C67.3068 6.93337 62.9161 12.3579 61.1326 19.128L1.09089 247.054C-2.47595 260.594 5.57014 274.399 19.1096 277.968L247.024 338.054C253.794 339.839 260.613 338.73 266.25 335.444C271.887 332.158 276.213 326.771 277.997 320.001L338.038 92.0753C341.643 78.5999 333.559 64.7308 320.02 61.1613ZM238.053 310.897L54.6545 262.547L199.447 244.662L238.053 310.897ZM186.301 222.108L27.3363 241.742L80.3795 40.383L186.301 222.108ZM258.788 298.811L220.182 232.576L307.102 115.403L258.788 298.811ZM207.036 210.022L101.114 28.2973L302.463 81.3798L207.036 210.022Z" fill="#8D8D8D" fill-opacity="0.1"/>
</svg>
