<?xml version="1.0" encoding="utf-8"?>
<!-- Generator: Adobe Illustrator 19.2.1, SVG Export Plug-In . SVG Version: 6.00 Build 0)  -->
<svg version="1.1" xmlns="http://www.w3.org/2000/svg" xmlns:xlink="http://www.w3.org/1999/xlink" x="0px" y="0px"
	 viewBox="0 0 371 68" style="enable-background:new 0 0 371 68;" xml:space="preserve">
<style type="text/css">
	.st0{clip-path:url(#SVGID_2_);}
	.st1{fill:#243788;}
	.st2{fill:#AED06B;}
</style>
<g id="圖層_1">
	<g>
		<defs>
			<rect id="SVGID_1_" width="100" height="67.8"/>
		</defs>
		<clipPath id="SVGID_2_">
			<use xlink:href="#SVGID_1_"  style="overflow:visible;"/>
		</clipPath>
		<g class="st0">
			<path class="st1" d="M24.4,22.6c-1.3,0-2.5,0.4-3.5,1.2c-0.4,0.4-0.8,0.9-1,1.4c-0.2,0.5-0.3,1.1-0.3,1.7c0,1.3,0.5,2.5,1.3,3.5
				c0.8,1,1.9,1.9,3,2.5c1.2,0.7,2.5,1.4,3.9,2.2c1.4,0.8,2.7,1.5,3.9,2.2c1.2,0.7,2.2,1.6,3,2.6c0.8,1,1.3,2.2,1.3,3.4
				c0.1,2.4-1,4.5-3.3,6.3c-2.3,1.8-5.3,2.7-9.1,2.9c-3.8,0.1-6.9-0.4-9.1-1.7c-2.3-1.3-3.4-2.8-3.5-4.6c-0.1-0.8,0.1-1.6,0.3-2.3
				c0.3-0.7,0.8-1.4,1.3-1.9c1.3-1.1,3-1.7,4.7-1.7c0.5,0,1.1,0,1.6,0.1c-0.9,1.1-1.3,2.5-1.3,3.9c0,0.7,0.2,1.3,0.5,1.9
				c0.3,0.6,0.7,1.2,1.2,1.6c0.6,0.5,1.2,0.9,1.9,1.1c0.7,0.2,1.5,0.3,2.2,0.3c1.5,0,2.9-0.5,4.2-1.3c0.5-0.3,0.9-0.7,1.2-1.2
				c0.3-0.5,0.4-1.1,0.4-1.7c0-1.1-0.5-2.2-1.3-3c-0.9-0.9-1.9-1.6-3-2.2c-1.2-0.6-2.4-1.3-3.8-2c-1.4-0.8-2.7-1.5-3.8-2.3
				c-1.2-0.8-2.2-1.9-3-3.1c-0.8-1.3-1.3-2.7-1.3-4.2c-0.1-1.2,0.2-2.4,0.7-3.4c0.5-1.1,1.3-2,2.3-2.6c2.1-1.6,4.9-2.4,8.5-2.5
				c3.6-0.1,6.4,0.4,8.3,1.7c1.9,1.3,2.9,2.7,3,4.3c0,0.7-0.1,1.5-0.4,2.2c-0.3,0.7-0.7,1.3-1.2,1.8c-1.3,1.2-3,1.8-4.7,1.8
				c-0.7,0-1.3,0-2-0.1c1.5-1.4,2.2-2.9,2.1-4.4c0-0.6-0.1-1.3-0.4-1.9c-0.3-0.6-0.7-1.1-1.2-1.5C27,22.9,25.7,22.5,24.4,22.6z"/>
			<path class="st1" d="M40,51.6c-0.4-0.3-0.8-0.7-1-1.1c-0.2-0.5-0.3-1-0.3-1.5c0-1.2,0.3-5.1,1.1-11.5c0.8-6.4,1.2-11,1.1-13.7
				c-0.1-2.7-0.4-4.5-0.9-5.3c3.2,0.1,5.4,1.1,6.5,3c2.5-1.2,5.2-1.9,8-2c2.9-0.1,5.3,0.6,7,2c0.8,0.7,1.5,1.5,2,2.5
				c0.5,1,0.7,2,0.8,3.1c0.1,2.8-1,5.3-3.3,7.7c-1.3,1.2-2.8,2.2-4.4,2.8c-1.9,0.8-4,1.2-6.1,1.2c-0.9,0-1.8,0-2.7-0.1l-0.2-1.7h0.4
				c3.6-0.1,6.4-1.4,8.4-3.7c1.3-1.4,2-3.2,2-5.1c-0.1-2.6-1.4-4.3-3.9-5c-2.1-0.6-4.5-0.4-7.1,0.7V24c0,1-0.3,4.4-1,10
				c-0.6,4.7-0.9,9.4-0.8,14.2c0,1.3,0.2,2.6,0.4,3.9c-1,0.1-1.7,0.1-2,0.2C42.1,52.3,40.8,52.1,40,51.6z"/>
			<path class="st1" d="M80.4,37.2L76,37.3c-1.3,0.1-2.4,0.1-3.1,0.2c-0.3,2.9-0.4,5.9-0.4,8.8c7.2-0.3,12.5-1,15.9-2.1
				c-0.1,1.7-0.7,3.3-1.9,4.5c-0.5,0.5-1.2,1-1.9,1.3c-0.7,0.3-1.4,0.5-2.2,0.5c-0.5,0-1.9-0.1-4.1-0.2c-2.2-0.1-4.6-0.1-7.1,0
				c-2.5,0.1-4.9,0.4-7.3,0.9c0.3-1.2,1-2.3,2.1-3.1V48c-0.1-1.4,0.3-4.6,0.9-9.6c-0.8,0.3-1.4,0.5-1.9,0.7c-0.1-0.6-0.1-1-0.1-1.2
				c-0.1-1.7,0.8-2.9,2.6-3.4c0.4-3.4,0.7-6.5,0.7-9.2c-1.1,0-1.9-0.2-2.2-0.6c-0.3-0.4-0.5-1.1-0.5-2.3c0-0.8,0.1-1.5,0.3-2.3
				c3.8,0.3,7.6,0.3,11.3,0.1c4-0.1,8-0.6,11.9-1.4c-0.3,2.7-2.2,4.4-5.7,5.1c-3,0.5-6,0.9-9.1,1c0,0.3-0.3,3.3-1,9
				c1.8,0,3.1,0,3.8-0.1c2.9-0.1,4.9-0.6,6.1-1.5c0.1,0.4,0.1,0.8,0.1,1.2C83.5,35.9,82.5,37.1,80.4,37.2z"/>
			<path class="st2" d="M50,0C22.4,0,0,15.2,0,33.9s22.4,33.9,50,33.9c27.6,0,50-15.2,50-33.9S77.6,0,50,0z M50,66
				C25.4,66,5.5,52.5,5.5,35.8S25.4,5.6,50,5.6c24.6,0,44.5,13.5,44.5,30.2S74.5,65.9,50,66L50,66z"/>
		</g>
	</g>
</g>
<g id="圖層_2">
	<g>
		<path class="st1" d="M117.9,22.3c-1,0-1.8,0.3-2.5,0.9c-0.7,0.6-1,1.5-1,2.6c0,1.1,0.3,2.1,0.8,3c0.6,0.9,1.3,1.6,2.1,2.2
			c0.8,0.6,1.7,1.3,2.7,2c1,0.7,1.9,1.4,2.7,2s1.5,1.4,2.1,2.3c0.6,0.9,0.8,1.9,0.8,3c0,2.1-0.8,3.8-2.5,5.2s-3.9,2.1-6.6,2.1
			c-2.7,0-4.9-0.6-6.5-1.8c-1.6-1.2-2.4-2.5-2.4-4c0-1.5,0.4-2.6,1.3-3.5c0.9-0.8,2-1.2,3.4-1.2c0.4,0,0.8,0,1.1,0.1
			c-0.7,1-1,2.1-1,3.3c0,1.2,0.4,2.2,1.1,3.1s1.7,1.3,2.9,1.3c1.2,0,2.2-0.3,3-0.9c0.8-0.6,1.2-1.4,1.2-2.4s-0.3-1.9-0.8-2.6
			c-0.6-0.8-1.2-1.4-2.1-1.9c-0.8-0.5-1.7-1.2-2.7-1.9c-1-0.7-1.9-1.4-2.7-2.1c-0.8-0.7-1.5-1.6-2.1-2.7c-0.6-1.1-0.8-2.3-0.8-3.6
			c0-2.1,0.8-3.8,2.3-5c1.5-1.2,3.6-1.9,6.2-1.9c2.6,0,4.6,0.6,5.9,1.7c1.3,1.2,2,2.4,2,3.7c0,1.3-0.4,2.4-1.3,3.3
			c-0.8,0.9-2,1.3-3.4,1.3c-0.5,0-1,0-1.4-0.1c1.1-1.1,1.6-2.4,1.6-3.6c0-1.3-0.4-2.2-1.1-2.9S118.9,22.3,117.9,22.3z"/>
		<path class="st1" d="M136.3,21.8c0.2,0.4,0.3,0.7,0.3,1c0,0.3,0,0.9,0,1.7s-0.3,3.1-0.8,6.9l-0.3,1.9c3-2.5,5.5-4.8,7.6-7.2
			c2.1-2.3,3.5-4.3,4.3-5.9c0.7,1.3,1.1,2.5,1.1,3.8c0,1.2-0.6,2.5-1.9,3.8c-1.3,1.3-3.1,2.9-5.7,4.7c1.5,4.9,3.3,8.7,5.2,11.3
			c0.8,1.1,1.9,2.4,3.1,3.7c-0.8,0.2-1.6,0.3-2.5,0.3c-0.8,0-1.7-0.3-2.5-0.8s-1.6-1.1-2.2-1.9c-0.6-0.7-1.3-1.7-1.9-2.9
			c-1-1.8-2-4.1-3.1-7.1c-0.6,0.5-1.3,0.9-2,1.4c-0.4,3.3-0.6,5.8-0.6,7.5s0.2,2.9,0.5,3.6c-1.9-0.5-3.2-1.1-3.8-1.9
			c-0.7-0.8-1-1.9-1-3.4c0-0.8,0.2-3,0.7-6.4c0.8-5.7,1.2-10.1,1.2-13.2c0-0.7,0-1.6-0.1-2.7c1.7,0.1,2.9,0.4,3.7,0.8
			C135.9,21.1,136.2,21.4,136.3,21.8z"/>
		<path class="st1" d="M159.2,33.4l0.2,1.3c2-3.2,3.7-6.1,5-9c1.3-2.8,2-5,2.2-6.6c1.7,0.9,2.5,2.2,2.5,3.7c0,1.6-2.8,6.5-8.4,14.6
			c-0.4,3-0.5,5.3-0.5,6.9s0.2,2.8,0.5,3.5c-1.9-0.5-3.2-1.1-3.8-1.9s-1-1.8-1-3.1s0.2-3,0.5-5.3c-2.4-8.4-4.4-14-6.1-16.6
			c0.9-0.6,1.9-0.9,2.9-0.9c0.5,0,1,0,1.3,0.1c0.4,0.1,0.7,0.3,1.1,0.7c0.4,0.4,0.7,0.8,0.9,1.4c0.3,0.6,0.5,1.4,0.8,2.4
			C157.7,26.4,158.4,29.3,159.2,33.4z"/>
		<path class="st1" d="M183.1,46.7c-0.6-0.4-0.8-1.2-0.8-2.2s0.4-4.2,1.1-9.4c0.7-5.3,1.1-9,1.1-11.2s-0.2-3.7-0.5-4.4
			c2.3,0.2,3.7,1.1,4.4,2.7c1.7-0.9,3.6-1.4,5.6-1.4c2,0,3.7,0.6,4.8,1.9c1.2,1.3,1.8,2.8,1.8,4.7c0,2.3-0.8,4.4-2.5,6.2
			c-0.8,0.9-1.9,1.6-3.2,2.2c-1.3,0.6-2.7,0.8-4.3,0.8c-0.7,0-1.3,0-1.9-0.1l-0.1-1.4c0.1,0,0.2,0,0.3,0c2.5,0,4.5-0.9,6-2.8
			c1-1.3,1.5-2.7,1.5-4.2c0-2.1-0.9-3.6-2.6-4.2c-1.5-0.6-3.1-0.4-5,0.3v0.1c0,0.8-0.3,3.6-0.9,8.2C187.3,37,187,40.9,187,44
			c0,1.4,0.1,2.5,0.2,3.3c-0.7,0-1.2,0.1-1.4,0.1C184.5,47.3,183.6,47.1,183.1,46.7z"/>
		<path class="st1" d="M212.9,46.8c-0.2,0.1-0.6,0.2-1.3,0.3c-0.7,0.1-1.4,0.2-1.9,0.2s-0.9-0.2-1-0.5c-0.4-1.4-1-4.1-1.8-8
			c-0.8-4-1.6-7.6-2.4-10.9s-1.6-5.4-2.3-6.5c1.2-0.6,2.2-0.9,2.9-0.9c0.7,0,1.2,0.1,1.5,0.2c0.3,0.2,0.6,0.5,0.9,1
			c0.3,0.5,0.6,1.2,0.8,2.1c0.3,1.3,0.7,3.3,1.2,5.9c0.5,2.6,0.8,4,0.8,4.3c0.8,3.9,1.3,6.6,1.5,8.1c1.4-3.1,3-7.2,4.8-12.3
			c1.7-5.1,2.6-8.4,2.6-9.9c2.5,0.4,3.7,1.2,3.7,2.5c0,0.9-0.6,2.8-1.9,5.8c-1.3,2.9-2.8,6.3-4.5,10.1
			C214.7,42.1,213.5,44.9,212.9,46.8z"/>
		<path class="st1" d="M248.1,35.7l-3.2,0c-1,0-1.7,0-2.2,0c-0.3,2.9-0.5,5.5-0.5,7.6c5.2,0,9.1-0.4,11.6-1.3
			c-0.2,1.6-0.7,2.9-1.5,3.8c-0.8,0.9-1.8,1.4-3,1.4c-0.4,0-1.3-0.1-3-0.3s-3.3-0.3-5.2-0.3s-3.6,0.2-5.3,0.6c0.2-1,0.8-1.9,1.6-2.6
			v-0.1c0-1.2,0.3-3.9,0.9-8.2c-0.6,0.2-1,0.4-1.4,0.5c0-0.5-0.1-0.9-0.1-1.1c0-1.5,0.7-2.4,2-2.8c0.4-2.9,0.7-5.6,0.8-7.9
			c-0.8,0-1.3-0.2-1.6-0.6c-0.2-0.3-0.3-1-0.3-2c0.1-1,0.2-1.6,0.3-2c2.5,0.3,5.2,0.5,8.2,0.5c3,0,5.9-0.3,8.7-0.8
			c-0.3,2.3-1.7,3.7-4.2,4.2c-1.5,0.3-3.7,0.5-6.6,0.6c0,0.2-0.3,2.8-1,7.7c1.3,0,2.2,0.1,2.8,0.1c2.1,0,3.6-0.4,4.5-1.1
			c0,0.4,0.1,0.8,0.1,1C250.3,34.7,249.6,35.7,248.1,35.7z"/>
		<path class="st1" d="M272.1,45.5c-0.4-0.6-1.7-3-4-7.4c-2.3-4.3-3.9-7.4-4.8-9.1c-0.1,0.8-0.3,2.2-0.6,4.3
			c-0.6,4.3-0.9,7.9-0.9,10.8c0,0.7,0,1.6,0.1,2.8c-1.5,0-2.6-0.2-3.1-0.5c-0.5-0.4-0.8-0.9-0.8-1.5c0-0.2,0.4-3.2,1.1-8.9
			c0.7-5.7,1.1-9.8,1.1-12.1l-0.3-0.4c-0.6-0.8-1.3-1.5-2.2-2.1c-0.2-0.1-0.4-0.2-0.4-0.3c1.1-0.6,2.1-1,3.1-1
			c1.9,0,3.4,0.6,4.3,1.9c0.9,1.3,2.6,4.4,5.1,9.4c0.3,0.6,0.7,1.4,1.2,2.5c0.5,1.1,1,2,1.3,2.7c0.8,1.7,1.6,3.2,2.5,4.7
			c0.1-0.9,0.4-3.5,0.9-7.9c0.5-4.4,0.8-7.9,0.8-10.5c0-0.7,0-1.6-0.1-2.7c1.5,0,2.6,0.2,3.1,0.5c0.5,0.4,0.8,0.9,0.8,1.5
			c0,0.2-0.4,3.3-1.1,9.3c-0.7,5.9-1.1,10-1.1,12.3c0,0.8,0,1.4,0.1,1.8c0.2,0.2,0.5,0.3,0.9,0.6c-1.4,0.9-2.6,1.3-3.8,1.3
			C274,47.5,273,46.8,272.1,45.5z"/>
		<path class="st1" d="M296.2,35.7l-3.2,0c-1,0-1.7,0-2.2,0c-0.3,2.9-0.5,5.5-0.5,7.6c5.2,0,9.1-0.4,11.6-1.3
			c-0.2,1.6-0.7,2.9-1.5,3.8c-0.8,0.9-1.8,1.4-3,1.4c-0.4,0-1.3-0.1-3-0.3s-3.3-0.3-5.2-0.3s-3.6,0.2-5.3,0.6c0.2-1,0.8-1.9,1.6-2.6
			v-0.1c0-1.2,0.3-3.9,0.9-8.2c-0.6,0.2-1,0.4-1.4,0.5c0-0.5-0.1-0.9-0.1-1.1c0-1.5,0.7-2.4,2-2.8c0.4-2.9,0.7-5.6,0.8-7.9
			c-0.8,0-1.3-0.2-1.6-0.6c-0.2-0.3-0.3-1-0.3-2c0.1-1,0.2-1.6,0.3-2c2.5,0.3,5.2,0.5,8.2,0.5c3,0,5.9-0.3,8.7-0.8
			c-0.3,2.3-1.7,3.7-4.2,4.2c-1.5,0.3-3.7,0.5-6.6,0.6c0,0.2-0.3,2.8-1,7.7c1.3,0,2.2,0.1,2.8,0.1c2.1,0,3.6-0.4,4.5-1.1
			c0,0.4,0.1,0.8,0.1,1C298.5,34.7,297.7,35.7,296.2,35.7z"/>
		<path class="st1" d="M306.8,46.7c-0.6-0.4-0.8-1.2-0.8-2.2s0.4-4.2,1.1-9.4c0.7-5.3,1.1-9,1.1-11.2s-0.2-3.7-0.5-4.4
			c2.2,0.2,3.7,1.1,4.4,2.6c1.6-0.9,3.4-1.3,5.4-1.3c2,0,3.7,0.6,5,1.7c1.3,1.2,1.9,2.5,1.9,4s-0.5,3-1.6,4.6
			c-1,1.5-2.6,2.7-4.6,3.4l0.4,1.3c0.8,2.5,1.9,4.9,3.5,7.4c1.5,2.4,2.7,4.1,3.7,5c-0.8,0.2-1.6,0.3-2.4,0.3s-1.6-0.3-2.4-0.8
			s-1.5-1.1-2-1.7s-1.1-1.6-1.8-3c-0.7-1.3-1.1-2.4-1.4-3.2c-0.3-0.8-0.6-1.6-0.9-2.5c-0.3-0.9-0.5-1.4-0.5-1.5
			c0-0.1-0.1-0.1-0.1-0.2c0-0.1-0.1-0.2-0.1-0.3c-0.5,0-1,0-1.4,0l-0.1-1.5c2.8-0.1,4.9-1.1,6.3-3c0.8-1.1,1.1-2.1,1.1-3.3
			c0-0.4,0-0.8-0.1-1.2c-0.4-1.4-1.3-2.3-2.7-2.7c-0.4-0.1-1-0.2-1.7-0.2c-0.7,0-1.6,0.2-2.8,0.7c0,0.8-0.3,3.6-0.9,8.2
			c-0.6,4.7-0.9,8.5-0.9,11.7c0,1.4,0.1,2.5,0.2,3.3c-0.7,0-1.2,0.1-1.4,0.1C308.3,47.3,307.4,47.1,306.8,46.7z"/>
		<path class="st1" d="M335.9,55.3c3.7,0,5.8-4.3,6.3-13c-0.8,1.2-1.8,2.1-3,2.7c-1.2,0.6-2.3,0.9-3.5,0.9c-2.1,0-3.9-0.9-5.5-2.6
			c-1.5-1.7-2.3-4.1-2.3-7.2c0-4.2,1.1-7.9,3.3-11c1.1-1.5,2.4-2.7,4.1-3.6c1.7-0.9,3.6-1.3,5.8-1.3c2.2,0,3.8,0.6,4.9,1.7
			c1.1,1.1,1.7,2.5,1.7,4.1c0,1.6-0.5,2.9-1.5,3.9c-1,1-2.2,1.4-3.6,1.4c-0.9,0-1.8-0.2-2.6-0.7c-0.8-0.4-1.4-1.1-1.9-1.9
			c0.6,0.2,1.2,0.2,1.7,0.2c1.2,0,2.1-0.3,2.8-1c0.7-0.7,1-1.5,1-2.3s-0.3-1.6-0.9-2.1s-1.4-0.8-2.5-0.8c-1.4,0-2.7,0.7-3.8,2.1
			s-2,3.2-2.6,5.2c-0.6,2-0.9,4.1-0.9,6.3c0,2.2,0.4,3.9,1.3,5.1c0.9,1.2,1.9,1.8,3.1,1.8c1.2,0,2.3-0.6,3.2-1.8
			c0.9-1.2,1.3-2.8,1.3-4.8c0-0.5,0-1-0.1-1.6v-0.1c0.5,0,1-0.1,1.5-0.1c1.3,0,2.2,0.2,2.7,0.6c0.5,0.4,0.7,1.2,0.7,2.2
			c0,6.7-1.2,12-3.6,15.8c-0.8,1.3-1.9,2.4-3.3,3.2c-1.3,0.8-2.9,1.2-4.6,1.2c-2.3,0-4.1-0.6-5.2-1.8c-1.2-1.2-1.7-2.5-1.7-4.1
			c0-1.5,0.4-2.7,1.2-3.7s1.8-1.4,3.1-1.4c0.7,0,1.4,0.2,2.2,0.6c-1.2,1.5-1.8,3-1.8,4.7c0,1,0.2,1.7,0.7,2.3
			C334.2,55,334.9,55.3,335.9,55.3z"/>
		<path class="st1" d="M359.4,33.4l0.2,1.3c2-3.2,3.7-6.1,5-9c1.3-2.8,2-5,2.2-6.6c1.7,0.9,2.5,2.2,2.5,3.7c0,1.6-2.8,6.5-8.4,14.6
			c-0.4,3-0.5,5.3-0.5,6.9s0.2,2.8,0.5,3.5c-1.9-0.5-3.2-1.1-3.8-1.9s-1-1.8-1-3.1s0.2-3,0.5-5.3c-2.4-8.4-4.4-14-6.1-16.6
			c0.9-0.6,1.9-0.9,2.9-0.9c0.5,0,1,0,1.3,0.1s0.7,0.3,1.1,0.7c0.4,0.4,0.7,0.8,0.9,1.4c0.3,0.6,0.5,1.4,0.8,2.4
			C357.9,26.4,358.5,29.3,359.4,33.4z"/>
	</g>
</g>
</svg>
