<svg width="371" height="68" viewBox="0 0 371 68" fill="none" xmlns="http://www.w3.org/2000/svg">
<g clip-path="url(#clip0)">
<path d="M24.4194 22.5855C23.1652 22.5889 21.9488 23.0163 20.9663 23.7987C20.5188 24.1748 20.1692 24.6546 19.9478 25.1966C19.7264 25.7386 19.6398 26.3265 19.6954 26.9097C19.7315 28.1768 20.1948 29.3942 21.0097 30.3628C21.856 31.3707 22.8793 32.2143 24.0288 32.8516C25.215 33.5235 26.5106 34.2494 27.9158 35.0292C29.321 35.809 30.6167 36.5474 31.8028 37.2442C32.9696 37.9246 33.9964 38.8221 34.8282 39.8885C35.6226 40.8619 36.0834 42.0662 36.1424 43.323C36.2375 45.7495 35.1443 47.8484 32.8629 49.6195C30.5816 51.3907 27.5356 52.351 23.725 52.5003C19.9145 52.6496 16.8706 52.0772 14.5933 50.783C12.3161 49.4889 11.1444 47.9687 11.0783 46.2224C11.0112 45.4445 11.1297 44.6618 11.424 43.939C11.7183 43.2162 12.18 42.5742 12.7707 42.0662C14.1044 40.9864 15.7687 40.4018 17.4823 40.4112C18.011 40.3874 18.5408 40.4186 19.0631 40.5045C18.1899 41.6288 17.736 43.0243 17.7798 44.4492C17.7987 45.1229 17.9566 45.7855 18.2436 46.3949C18.5307 47.0042 18.9406 47.5472 19.4475 47.9894C20.0071 48.4801 20.6594 48.8525 21.3656 49.0845C22.0718 49.3164 22.8173 49.4032 23.5577 49.3396C25.0493 49.3322 26.5062 48.8866 27.7484 48.0578C28.2487 47.7557 28.6603 47.3259 28.9412 46.8123C29.2222 46.2986 29.3625 45.7193 29.3479 45.1336C29.3135 44.0009 28.8579 42.9222 28.0708 42.1097C27.2176 41.2182 26.2171 40.4814 25.1137 39.9321C23.9482 39.3389 22.6712 38.6587 21.2825 37.8913C19.8938 37.1239 18.6126 36.3441 17.4389 35.5519C16.2433 34.7418 15.2246 33.6961 14.4446 32.4783C13.6258 31.2279 13.1687 29.774 13.1241 28.2785C13.0562 27.0995 13.2934 25.923 13.8127 24.8632C14.3319 23.8035 15.1156 22.8966 16.0874 22.2308C18.1539 20.6753 20.9952 19.8271 24.6116 19.6861C28.2279 19.545 30.9928 20.1216 32.9063 21.4157C34.8281 22.7099 35.818 24.1327 35.8759 25.684C35.9162 26.4253 35.7932 27.1665 35.5157 27.8548C35.2382 28.543 34.8129 29.1614 34.2702 29.666C32.9806 30.8313 31.3 31.4647 29.5649 31.4392C28.8984 31.4657 28.2309 31.4386 27.5687 31.3583C29.0276 29.9439 29.7281 28.4921 29.6703 27.003C29.6863 26.3539 29.5486 25.7103 29.2683 25.1251C28.9881 24.5399 28.5734 24.0299 28.0584 23.637C27.0033 22.8742 25.7171 22.5026 24.4194 22.5855Z" fill="#243788"/>
<path d="M39.9613 51.5545C39.5389 51.2628 39.1984 50.8669 38.9725 50.4049C38.7467 49.9428 38.6431 49.4303 38.6718 48.9164C38.6222 47.6721 39.0045 43.8477 39.8187 37.4433C40.6329 31.0389 40.9862 26.4762 40.8788 23.7552C40.7713 21.0424 40.48 19.2795 40.0047 18.4666C43.2407 18.5537 45.4023 19.5409 46.4892 21.4282C48.9681 20.1967 51.6843 19.5216 54.4492 19.4496C57.3753 19.3335 59.7146 20.0117 61.4669 21.4842C62.3075 22.1577 62.9903 23.0084 63.467 23.976C63.9437 24.9437 64.2027 26.0047 64.2257 27.0839C64.3331 29.8671 63.2276 32.4285 60.909 34.7679C59.6285 35.9806 58.1222 36.9278 56.4764 37.5553C54.5282 38.3222 52.462 38.7432 50.37 38.7997C49.4667 38.8373 48.5619 38.8186 47.6609 38.7437L47.4501 37.0638H47.8283C51.4033 36.9227 54.2075 35.6784 56.2409 33.3306C57.5332 31.9351 58.2452 30.0965 58.2309 28.1914C58.1317 25.5989 56.8153 23.9397 54.2819 23.2139C52.1369 22.629 49.7687 22.8551 47.1773 23.8921V23.9729C47.2187 24.9892 46.8963 28.3303 46.2102 33.9964C45.5783 38.6867 45.3089 43.4191 45.4043 48.1512C45.4273 49.4688 45.5747 50.7812 45.8445 52.0709C44.8319 52.1622 44.1686 52.214 43.8545 52.2265C42.0691 52.2804 40.7713 52.0564 39.9613 51.5545Z" fill="#243788"/>
<path d="M80.437 37.2069L76.0479 37.3375C74.7047 37.3915 73.6838 37.4433 72.9854 37.4931C72.6819 40.4278 72.5515 43.378 72.5948 46.3282C79.753 46.0503 85.0514 45.3534 88.49 44.2376C88.3983 45.9132 87.7426 47.508 86.6302 48.7609C86.103 49.3063 85.4732 49.7412 84.7772 50.0403C84.0812 50.3393 83.3329 50.4966 82.5758 50.503C82.0881 50.503 80.7201 50.4471 78.4718 50.3351C76.2235 50.2231 73.8512 50.2065 71.3549 50.2853C68.9012 50.3775 66.4609 50.6941 64.0645 51.231C64.3628 49.9911 65.1011 48.9028 66.1412 48.1698V48.0143C66.0875 46.6247 66.3913 43.4412 67.0526 38.4637C66.3004 38.725 65.6536 38.9573 65.1122 39.1605C65.0295 38.5964 64.982 38.1816 64.9696 37.9162C64.9034 36.1906 65.7589 35.0603 67.5361 34.5252C67.9494 31.1032 68.1953 28.0255 68.2738 25.292C67.1455 25.292 66.4202 25.1011 66.0979 24.7195C65.7755 24.3379 65.5936 23.5851 65.5523 22.461C65.5461 21.6889 65.6399 20.9192 65.8313 20.1713C69.6033 20.4287 73.3867 20.4744 77.1638 20.3082C81.1661 20.1619 85.1504 19.6959 89.079 18.9146C88.7566 21.6356 86.8699 23.3342 83.4189 24.0103C80.4199 24.5391 77.3907 24.8778 74.3492 25.0244C74.3492 25.3107 74.0227 28.3137 73.3697 34.0337C75.2006 34.0337 76.4653 34.0109 77.1638 33.9653C80.0568 33.8533 82.0964 33.3472 83.2825 32.4471C83.3486 32.8302 83.3942 33.2165 83.4189 33.6044C83.5016 35.9272 82.5076 37.1281 80.437 37.2069Z" fill="#243788"/>
<path d="M49.9727 0C22.3731 0 -0.00671387 15.169 -0.00671387 33.8844C-0.00671387 52.5998 22.3731 67.7812 49.9727 67.7812C77.5724 67.7812 99.9522 52.6122 99.9522 33.8968C99.9522 15.1814 77.5786 0 49.9727 0ZM49.9727 65.952C25.4108 65.952 5.50453 52.4567 5.50453 35.8007C5.50453 19.1447 25.417 5.64948 49.9727 5.64948C74.5285 5.64948 94.4409 19.1447 94.4409 35.8007C94.4409 52.4567 74.5347 65.9146 49.9727 65.9146V65.952Z" fill="#AED06B"/>
</g>
<path d="M143.763 17.7077C144.074 17.8316 144.342 18.045 144.532 18.321C144.722 18.5969 144.826 18.9229 144.83 19.2579C144.83 20.3761 144.203 20.9521 142.941 20.9521C141.163 21.0788 139.422 21.5205 137.799 22.2567C137.02 22.6464 136.249 22.9343 135.521 23.2224C135.824 23.8743 135.975 24.5871 135.961 25.3063C135.961 26.0856 135.868 27.0005 135.766 28.0679C137.901 27.585 140.18 27.0005 142.602 26.3736C143.637 26.0134 144.713 25.7857 145.804 25.696C146.682 25.7229 147.545 25.9215 148.346 26.2805C148.68 26.4304 148.968 26.6662 149.18 26.9638C149.393 27.2615 149.523 27.6103 149.557 27.9747C149.599 28.226 149.541 28.4837 149.396 28.6927C149.25 28.9018 149.028 29.0454 148.778 29.0929C144.225 29.6084 139.702 30.3519 135.224 31.3207L134.936 32.9218C138.55 38.0531 143.25 42.325 148.702 45.4336C153.064 47.7631 155.877 49.6014 157.173 50.9568C157.827 51.4673 158.387 52.0896 158.824 52.795C158.824 53.3795 158.045 53.7183 156.546 53.7183C152.279 53.6492 148.167 52.1081 144.906 49.3557C141.518 46.8144 137.977 42.4687 134.191 36.361C132.835 41.8842 130.412 45.9164 126.965 48.3815C124.83 49.9345 122.89 50.7111 121.145 50.7111C120.611 50.7111 120.366 50.5162 120.366 50.1266C122.34 49.151 124.129 47.8381 125.652 46.2468C127.346 44.451 128.947 41.2997 130.455 36.7931C130.913 35.2962 131.287 33.7746 131.573 32.2356C131.09 32.3288 130.65 32.4813 130.26 32.5745C125.508 33.9299 122.356 34.6075 120.755 34.6075C120.322 34.6116 119.894 34.5123 119.506 34.3178C119.119 34.1234 118.783 33.8394 118.528 33.4894C118.056 33.0272 117.778 32.4036 117.748 31.7443C117.748 31.4986 118.087 31.3547 118.816 31.2615C123.261 30.7907 127.668 30.0123 132.005 28.9319C132.101 27.9806 132.149 27.0249 132.149 26.0687C132.151 25.613 132.103 25.1583 132.005 24.7133C130.844 25.1961 129.819 25.5604 128.905 25.8738V25.679C129.752 25.0945 130.65 24.4676 131.717 23.8323C131.624 23.5866 131.522 23.3495 131.429 23.1546C129.93 23.612 128.384 23.8963 126.821 24.0017C125.804 24.0256 124.8 23.7738 123.915 23.2732C123.553 23.1154 123.234 22.8756 122.981 22.5727C122.728 22.2698 122.549 21.9122 122.458 21.5281C122.458 21.1385 122.551 20.9436 122.848 20.9436C123.535 21.072 124.233 21.1372 124.932 21.1385C126.728 21.1385 129.438 20.4608 133.123 19.0546C135.612 17.9227 138.295 17.2813 141.027 17.1656C141.963 17.188 142.889 17.3714 143.763 17.7077Z" fill="#243788"/>
<path d="M163.687 40.8846C163.973 41.8443 164.362 42.7702 164.847 43.6462C164.938 43.6863 165.037 43.7037 165.135 43.697C166.185 43.6376 167.217 43.4087 168.194 43.0194C169.157 42.6538 170.172 42.4422 171.201 42.3925C171.396 42.3925 171.54 42.4433 171.684 42.4433C171.734 41.5199 171.777 40.5542 171.777 39.5377C171.684 39.0549 171.192 38.8092 170.227 38.8092C169.422 38.9167 168.628 39.0953 167.855 39.3429C167.407 39.5384 166.933 39.6696 166.448 39.7326C165.319 39.7326 164.689 39.4897 164.559 39.004C164.623 38.901 164.709 38.813 164.809 38.7458C164.91 38.6785 165.024 38.6337 165.144 38.6144C165.683 38.375 166.202 38.0917 166.694 37.7673C167.84 36.9807 169.1 36.375 170.43 35.9714C174.208 35.9714 176.148 37.1828 176.3 39.5631C176.262 41.6323 176.036 43.6937 175.623 45.7216C175.229 47.4513 174.593 49.1169 173.734 50.6687C173.149 51.5921 172.573 52.0749 171.989 52.0749C171.535 52.092 171.089 51.9523 170.727 51.6792C170.364 51.4061 170.107 51.0163 169.998 50.5756C169.219 50.7689 168.426 50.8992 167.626 50.9652C167.295 50.9564 166.969 50.8905 166.66 50.7704C166.583 50.9051 166.478 51.0222 166.352 51.1141C166.227 51.2059 166.084 51.2707 165.932 51.3041C165.085 51.3041 164.331 50.6772 163.704 49.5082C162.844 47.3845 162.432 45.1063 162.492 42.816C162.492 41.1642 162.738 40.3425 163.272 40.3425C163.469 40.4694 163.616 40.6611 163.687 40.8846ZM168.295 48.3053C169.019 47.9406 169.815 47.741 170.625 47.7208C170.937 46.8518 171.181 45.9596 171.353 45.0524C171.158 45.1456 170.964 45.1964 170.87 45.2472C169.803 45.7781 168.835 46.2158 167.965 46.5603V46.3654C168.398 45.8785 168.868 45.4254 169.371 45.01C168.427 45.3127 167.453 45.5088 166.465 45.5946C166.269 45.6062 166.072 45.5891 165.881 45.5437C165.874 45.5819 165.88 45.6211 165.896 45.656C165.913 45.6909 165.94 45.7198 165.974 45.7386C166.592 46.6626 166.959 47.7307 167.041 48.839C167.475 48.6998 167.892 48.5152 168.287 48.2884L168.295 48.3053ZM169.947 19.7492C170.721 20.2349 171.302 21.2543 171.692 22.8073C171.972 22.8485 172.256 22.8655 172.539 22.8581C173.436 22.7539 174.301 22.4655 175.081 22.011C175.847 21.5275 176.719 21.2368 177.622 21.1639C178.401 21.1822 179.171 21.3311 179.901 21.6044C179.901 21.6552 179.951 21.6552 179.994 21.6552L180.239 18.36C180.246 18.2179 180.22 18.0762 180.164 17.9456C180.107 17.8149 180.022 17.6987 179.915 17.6058C179.807 17.5128 179.68 17.4455 179.542 17.4088C179.405 17.3722 179.261 17.3673 179.121 17.3943L175.436 17.3011C174.589 17.3011 174.174 17.0554 174.174 16.6742C174.174 16.4286 174.852 16.0474 176.309 15.4629C177.87 14.8632 179.533 14.5754 181.205 14.6158C184.162 14.6666 185.669 15.9288 185.763 18.3939C185.711 19.0445 185.476 19.6671 185.085 20.1898C184.77 21.2443 184.591 22.3344 184.551 23.4341C184.356 27.3647 183.924 29.7875 183.238 30.7532C182.992 31.1234 182.662 31.4306 182.275 31.6499C181.888 31.8691 181.455 31.9943 181.01 32.0154C180.735 31.9923 180.477 31.8725 180.281 31.6771C180.086 31.4817 179.966 31.2234 179.943 30.9481C179.899 30.9745 179.85 30.9918 179.799 30.9989C178.71 31.3286 177.588 31.5388 176.453 31.6257C175.734 31.6266 175.029 31.424 174.42 31.0412C173.995 30.8627 173.651 30.5339 173.454 30.1179C173.454 29.923 173.649 29.8299 174.039 29.7282C174.969 29.53 175.867 29.202 176.707 28.754C177.555 28.2472 178.532 27.9944 179.519 28.0255V27.6358L179.807 24.1457C179.658 24.2216 179.492 24.2567 179.325 24.2474C178.748 24.3004 178.205 24.538 177.774 24.9251C176.95 25.6495 176.075 26.3147 175.157 26.9158V26.7209C175.514 25.9281 175.937 25.166 176.419 24.4422C175.721 24.8038 174.968 25.0499 174.191 25.1708C173.473 25.1873 172.76 25.0396 172.107 24.7387C172.302 26.0009 172.446 27.1106 172.497 28.034C172.497 29.2962 172.302 29.923 171.963 29.923C171.671 29.8842 171.397 29.7559 171.18 29.5558C170.964 29.3556 170.814 29.0934 170.752 28.8048C170.362 28.1272 170.023 26.3821 169.735 23.5697C169.535 22.6811 169.21 21.8255 168.77 21.0284C168.527 20.6851 168.375 20.2858 168.329 19.8679C168.32 19.8147 168.324 19.7602 168.341 19.7089C168.357 19.6576 168.386 19.611 168.424 19.5729C168.462 19.5348 168.508 19.5063 168.56 19.4898C168.611 19.4734 168.666 19.4694 168.719 19.4782C169.142 19.4482 169.565 19.5393 169.939 19.7408L169.947 19.7492ZM181.629 40.5034C181.665 40.7367 181.73 40.9644 181.824 41.1811C182.064 41.2223 182.308 41.2394 182.552 41.2319C183.38 41.1204 184.175 40.8314 184.882 40.3848C185.535 39.9087 186.305 39.6162 187.109 39.5377C187.821 39.554 188.524 39.6856 189.193 39.9274V38.8007C189.193 37.3013 188.66 36.522 187.694 36.522C186.92 36.549 186.154 36.6801 185.415 36.9117C184.568 36.8609 184.102 36.6237 184.102 36.1324C184.143 35.8633 184.249 35.6081 184.41 35.3883C184.57 35.1686 184.782 34.9909 185.026 34.8701C187.448 33.3707 189.049 32.5914 189.778 32.5406C190.909 32.6042 191.971 33.1091 192.734 33.9468C193.352 34.6539 193.71 35.5502 193.751 36.4881C193.751 44.0528 193.607 48.5594 193.361 49.9148C192.878 51.2702 192.048 51.9987 190.888 51.9987C190.354 51.9987 189.922 51.5667 189.625 50.6942C189.429 50.2171 189.314 49.7101 189.287 49.1948C188.438 49.5358 187.533 49.7168 186.618 49.7285C185.068 49.8359 183.517 49.5442 182.112 48.8813C182.037 49.0502 181.919 49.1967 181.771 49.3066C181.622 49.4165 181.448 49.4859 181.264 49.5082C180.485 49.5082 180.104 48.9237 180.104 47.814V41.3675C180.104 40.9355 179.96 40.0629 179.765 38.7499C179.765 38.6567 179.858 38.5551 180.104 38.5551C180.819 39.0088 181.357 39.6933 181.629 40.4949V40.5034ZM185.703 47.0516C186.676 46.605 187.733 46.3738 188.804 46.3739C188.897 46.3739 189.049 46.4247 189.193 46.4247V42.528C189.067 42.5662 188.935 42.5834 188.804 42.5788C188.18 42.6463 187.582 42.8612 187.059 43.2057C186.105 43.8685 185.118 44.482 184.102 45.0439V44.8999C184.43 44.3201 184.804 43.7676 185.22 43.248C184.916 43.4019 184.586 43.4995 184.246 43.5361C183.512 43.548 182.784 43.4006 182.112 43.1041C182.28 44.6343 182.362 46.1728 182.357 47.7123C183.505 47.7314 184.643 47.5032 185.695 47.0431L185.703 47.0516Z" fill="#243788"/>
<path d="M220.748 13.4383C221.471 14.6893 221.824 16.12 221.765 17.5637C221.765 18.0042 221.714 18.4108 221.714 18.9191C223.776 18.2575 225.882 17.7395 228.016 17.3688C229.279 17.3688 229.905 17.9025 229.905 18.8682C229.905 20.1728 228.211 22.0703 224.907 24.493C223.45 25.5604 222.095 26.5769 220.833 27.4495C220.62 28.2434 220.277 28.9964 219.816 29.6774C219.759 29.7351 219.711 29.8007 219.672 29.8722L219.96 29.7282C220.618 29.2881 221.364 28.9988 222.146 28.8811C222.897 28.9114 223.637 29.0749 224.331 29.3639C224.625 29.4863 224.88 29.6868 225.068 29.9436C225.256 30.2004 225.371 30.5038 225.399 30.8209C225.441 31.0722 225.383 31.33 225.237 31.539C225.092 31.748 224.87 31.8917 224.619 31.9391C223.84 32.134 223.12 32.278 222.434 32.422C222.924 33.1757 223.161 34.0658 223.112 34.9633C223.076 35.6024 222.912 36.2276 222.629 36.8015C221.934 38.3352 221.431 39.9483 221.129 41.6046C220.828 43.3026 220.667 45.0223 220.647 46.7466C220.647 48.6356 223.018 49.559 227.771 49.559C230.425 49.6665 233.076 49.255 235.573 48.3476C237.462 47.5683 238.436 46.6534 238.436 45.5861L238.241 43.697C238.241 43.4514 238.292 43.3073 238.436 43.3073C238.726 43.3816 238.983 43.5518 239.164 43.7902C240.715 45.4421 241.494 46.9922 241.494 48.5425C241.494 50.0927 240.427 51.2108 238.393 52.0834C236.648 52.9305 233.887 53.3456 230.202 53.3456C225.306 53.3456 222.154 52.9051 220.697 52.1342C218.851 51.16 217.978 49.5929 217.978 47.2888C218.085 45.1848 218.368 43.0935 218.825 41.0371C219.41 38.0807 219.749 36.3865 219.749 35.9544C219.695 35.5591 219.528 35.188 219.266 34.8871C217.196 38.7586 214.417 42.2068 211.074 45.0524C208.303 47.598 204.985 49.4732 201.375 50.5332C201.087 50.5332 200.985 50.4315 200.985 50.3383C205.142 47.5665 208.84 44.1625 211.947 40.2493C213.501 38.3941 214.895 36.4104 216.114 34.3195C214.657 34.904 213.251 35.48 211.989 36.1154C208.745 37.7164 206.61 38.5381 205.543 38.5889C205.146 38.6028 204.753 38.5114 204.403 38.3239C204.054 38.1364 203.76 37.8595 203.552 37.5216C203.131 37.0929 202.889 36.5208 202.874 35.9206C202.903 35.7508 202.993 35.5976 203.127 35.4898C203.262 35.3821 203.431 35.3274 203.603 35.3361C204.211 35.2803 204.812 35.1669 205.399 34.9972C209.631 32.6041 213.668 29.8791 217.47 26.848C217.326 24.8149 217.275 21.7061 217.275 17.5298C217.157 15.8169 216.896 14.1167 216.496 12.4471C216.496 12.0575 216.883 11.8626 217.656 11.8626C218.264 11.837 218.867 11.9685 219.409 12.2446C219.951 12.5206 220.412 12.9318 220.748 13.4383ZM211.803 24.8319C211.88 24.9465 211.98 25.044 212.097 25.1184C212.213 25.1927 212.344 25.2422 212.48 25.2639C212.675 25.2639 213.209 24.6794 213.98 23.4257C214.03 23.4296 214.077 23.4513 214.113 23.4871C214.149 23.5228 214.171 23.5701 214.175 23.6205C214.081 25.5604 213.734 26.9158 213.056 27.6951C212.912 27.9814 212.7 28.2283 212.439 28.4143C212.178 28.6002 211.875 28.7198 211.557 28.7625C211.25 28.7548 210.949 28.6739 210.679 28.5266C210.41 28.3792 210.179 28.1697 210.007 27.9154C209.305 27.2084 208.861 26.2868 208.745 25.2978C208.606 24.4922 208.319 23.7194 207.898 23.0191C207.894 22.969 207.902 22.9188 207.921 22.8724C207.94 22.826 207.969 22.7847 208.007 22.7518C208.045 22.7189 208.09 22.6953 208.139 22.6828C208.187 22.6704 208.238 22.6695 208.287 22.6802C209.016 22.6972 210.176 23.4257 211.803 24.8319ZM218.732 30.2618C218.531 30.2724 218.332 30.2169 218.165 30.1037C217.998 29.9905 217.873 29.8259 217.809 29.635C217.758 29.635 217.758 29.5842 217.758 29.5418C215.818 30.804 214.124 31.8714 212.675 32.6931C214.539 32.0069 216.53 31.236 218.757 30.2618H218.732ZM225.373 19.0631C225.37 19.0127 225.348 18.9654 225.312 18.9296C225.276 18.8939 225.229 18.8721 225.179 18.8682C224.081 19.439 222.873 19.7683 221.638 19.8339C221.587 20.9013 221.544 22.0195 221.443 23.2224C224.094 20.8081 225.407 19.4866 225.407 19.0631H225.373Z" fill="#243788"/>
<path d="M244.696 22.6548C245.148 23.3311 245.4 24.1207 245.424 24.9335C245.407 26.8028 244.961 28.6432 244.12 30.3127C243.679 31.2869 243.273 31.7697 242.765 31.7697C242.506 31.7251 242.261 31.6266 242.043 31.4807C241.826 31.3347 241.641 31.1446 241.502 30.9226C241.32 30.7751 241.17 30.5913 241.062 30.3828C240.954 30.1742 240.89 29.9456 240.876 29.7112C240.927 29.2789 241.078 28.8643 241.316 28.4999C242.242 26.5052 242.925 24.4062 243.349 22.2482C243.349 21.9602 243.4 21.7653 243.544 21.7653C244.008 21.94 244.409 22.2499 244.696 22.6548ZM250.998 36.3272C252.135 36.7891 253.047 37.6766 253.54 38.8007C253.635 39.068 253.748 39.3284 253.879 39.58C254.556 39.3852 255.378 39.0464 256.352 38.6567C256.479 38.601 256.609 38.5529 256.742 38.5127V38.4195C256.742 37.6402 256.835 37.259 257.132 37.259C257.42 37.2619 257.704 37.3288 257.963 37.4548C258.222 37.5807 258.45 37.7627 258.631 37.9875C259.256 37.8878 259.887 37.8396 260.52 37.8435C261.299 37.8435 261.681 38.1315 261.681 38.6228C261.681 39.3514 261.003 39.885 259.69 40.2747C259.745 40.6592 259.776 41.0468 259.783 41.4352V42.4517C260.458 42.1836 261.156 41.9739 261.867 41.8249C262.155 41.8249 262.401 41.8757 262.595 41.8757C262.882 41.1316 263.239 40.4167 263.663 39.741C264.73 37.4623 265.264 35.8104 265.264 34.8447C265.264 34.2179 265.069 33.879 264.679 33.879C263.214 34.0632 261.785 34.4717 260.444 35.0904C257.538 36.5474 255.835 37.2759 255.361 37.2759C254.099 37.1743 253.472 36.8862 253.472 36.3525C253.472 35.9629 254.633 35.2344 257.064 34.167C261.621 32.0832 264.434 31.0158 265.594 31.0158C266.441 31.0158 267.483 31.6003 268.796 32.71C269.957 33.7773 270.541 34.5059 270.541 34.9887C270.541 35.8132 270.008 36.7818 268.94 37.8943C267.485 39.7761 266.233 41.8063 265.204 43.9511C265.067 44.3527 264.815 44.705 264.479 44.9641C264.143 45.2232 263.739 45.3776 263.315 45.4081C263.173 45.3661 263.042 45.2915 262.933 45.19C262.824 45.0886 262.74 44.9631 262.689 44.8236C262.638 44.8236 262.638 44.7728 262.638 44.722C262.574 44.7959 262.488 44.8466 262.392 44.866C261.426 45.2557 260.401 45.5945 259.436 45.8825V46.0774C259.342 47.1956 259.342 48.2121 259.342 49.1778C259.342 49.8555 259.774 50.296 260.698 50.584C261.621 50.872 263.459 51.1177 266.373 51.1177C269.042 51.1177 270.88 50.8297 271.854 50.2706C272.701 49.9318 273.311 49.1101 273.693 47.7293C273.693 47.4413 273.786 47.2972 273.938 47.2972C274.566 47.4631 275.137 47.7969 275.59 48.2629C275.962 48.5789 276.248 48.9838 276.422 49.4399C276.595 49.896 276.651 50.3886 276.583 50.872C276.516 51.3553 276.327 51.8137 276.035 52.2047C275.743 52.5957 275.357 52.9065 274.912 53.1084C273.211 53.9928 271.305 54.4107 269.389 54.3198C265.154 54.3198 261.875 53.8369 259.597 52.8628C257.902 52.0156 257.055 50.9229 257.055 49.5675C257.055 49.1778 257.106 48.1613 257.25 46.5603V46.5094C256.86 46.6026 256.471 46.7042 256.132 46.7974C255.07 47.0709 253.983 47.2327 252.888 47.2803C251.727 47.2803 251.193 46.9922 251.193 46.3569C251.193 46.0689 251.532 45.7724 252.21 45.4336C252.591 45.2934 252.965 45.1322 253.328 44.9507C252.828 44.8402 252.392 44.5354 252.117 44.1036C251.583 43.5191 251.1 42.0197 250.617 39.6393C250.293 38.8299 249.796 38.1013 249.16 37.5047C248.993 37.3953 248.851 37.252 248.743 37.0842C248.635 36.9164 248.564 36.7277 248.533 36.5305C248.533 36.2848 248.728 36.1408 249.118 36.1408C249.75 36.1354 250.38 36.1979 250.998 36.3272ZM273.786 18.1905C275.582 18.8174 276.505 19.5036 276.505 20.2236C276.505 21.3531 275.584 22.4685 273.743 23.5697C272.644 24.2919 271.372 24.7099 270.058 24.7811C268.796 24.7811 268.169 24.5354 268.169 24.0017C269.669 22.5955 270.448 21.5281 270.448 20.7996C270.448 20.3168 269.33 20.0203 267.204 20.0203C266.67 20.0203 266.136 20.0711 265.603 20.1135C265.648 20.2713 265.679 20.4329 265.696 20.5963C265.626 22.0003 265.431 23.3952 265.111 24.7641C265.11 24.8089 265.118 24.8535 265.135 24.8952C265.151 24.9368 265.176 24.9746 265.208 25.0063C265.24 25.038 265.277 25.0629 265.319 25.0795C265.361 25.0962 265.405 25.1041 265.45 25.103C267.729 25.6366 268.889 26.2635 268.889 26.992C268.907 27.3944 268.833 27.7956 268.673 28.1653C268.513 28.535 268.271 28.8637 267.966 29.1267C267.119 29.9738 265.061 30.6769 261.909 31.3546C261.882 31.3613 261.854 31.3608 261.827 31.3534C261.801 31.346 261.776 31.3318 261.757 31.3122C261.737 31.2926 261.723 31.2683 261.716 31.2416C261.708 31.2149 261.708 31.1867 261.714 31.1598C263.705 29.0251 264.722 27.7205 264.722 27.1869C263.222 27.1869 262.494 26.4583 262.494 25.103C262.523 23.9511 262.72 22.8096 263.078 21.7145C263.288 21.2816 263.45 20.8272 263.561 20.3592C262.494 20.554 261.426 20.7488 260.359 21.0368C260.364 21.782 260.316 22.5265 260.215 23.2647C260.122 24.2305 260.071 26.1703 260.02 29.0844C259.828 30.5866 259.198 31.4111 258.131 31.5579C257.115 31.3631 256.581 30.4397 256.581 28.7455C256.57 28.4202 256.655 28.0989 256.827 27.8222C256.827 27.4834 256.92 26.416 257.115 24.5778C257.208 23.6036 257.259 22.6887 257.309 21.9093C255.564 22.4938 254.251 22.875 253.43 23.0699C253.792 23.5593 253.979 24.1556 253.963 24.7641C253.825 25.511 253.615 26.2429 253.337 26.9497C253.17 27.404 253.057 27.8757 252.998 28.3558C252.998 28.7455 253.048 28.8895 253.192 28.8895C253.336 28.8895 254.26 27.9662 255.666 26.0772H255.852C255.267 28.3571 254.522 30.5933 253.625 32.7693C253.551 32.9912 253.417 33.1882 253.237 33.3379C253.057 33.4876 252.84 33.584 252.608 33.6164C251.591 33.6164 251.109 32.7693 251.109 30.948C251.337 29.0511 251.693 27.1718 252.176 25.3232C252.324 24.6854 252.42 24.0366 252.464 23.3833V23.1885C250.812 23.1885 249.923 22.9005 249.796 22.2652C249.796 21.9771 251.829 21.1046 255.903 19.5459L257.064 19.1054C256.76 18.6283 256.383 18.2024 255.946 17.8432C255.819 17.817 255.704 17.7511 255.617 17.6552C255.53 17.5592 255.476 17.4382 255.463 17.3095C255.463 16.9199 255.751 16.725 256.428 16.725C257.436 16.7111 258.415 17.0565 259.19 17.6992L259.724 18.2329C261.845 17.5621 264.048 17.1859 266.272 17.1147C268.814 17.1271 271.342 17.489 273.786 18.1905ZM263.163 12.3709C263.351 12.5134 263.505 12.6961 263.613 12.9057C263.722 13.1152 263.782 13.3464 263.79 13.5823C263.765 13.8853 263.643 14.172 263.441 14.3996C263.239 14.6271 262.969 14.7832 262.672 14.8445C261.667 15.2394 260.6 15.4517 259.52 15.4713C257.883 15.5751 256.247 15.2571 254.768 14.548C254.514 14.4565 254.288 14.302 254.11 14.099C253.932 13.896 253.809 13.6511 253.752 13.3874C253.752 13.2942 253.845 13.1926 254.141 13.1926C255.649 13.2893 257.163 13.1085 258.606 12.6589C259.66 12.2695 260.776 12.0715 261.901 12.0744C262.343 12.061 262.781 12.1632 263.171 12.3709H263.163ZM257.547 41.2234V40.7406C256.53 40.9858 255.491 41.1332 254.446 41.1811C254.539 41.7656 254.641 42.2993 254.692 42.7821C254.712 43.3702 254.647 43.9581 254.497 44.5272C255.658 44.0443 256.632 43.6801 257.504 43.3158C257.496 42.6297 257.547 41.9011 257.547 41.2234Z" fill="#243788"/>
<path d="M298.708 27.2123C298.714 27.3797 298.682 27.5463 298.616 27.7002C298.55 27.8541 298.451 27.9914 298.325 28.1024C298.199 28.2133 298.051 28.2951 297.89 28.3419C297.729 28.3886 297.56 28.3992 297.395 28.3728C296.419 28.3678 295.445 28.4643 294.489 28.6609C294.462 28.7049 294.445 28.7539 294.438 28.8049C293.955 31.8121 293.659 34.2348 293.591 35.9799C295.192 33.5571 297.03 30.6431 299.123 27.2038C299.216 27.2038 299.318 27.3987 299.318 27.7883C298.455 31.6287 297.028 35.3198 295.082 38.7414C294.517 39.8088 293.984 40.7293 293.481 41.503L293.625 48.0512C293.608 49.0789 293.495 50.1028 293.286 51.1093C292.998 52.0326 292.659 52.5154 292.27 52.6086C291.93 52.5324 291.615 52.3723 291.353 52.143C291.091 51.9136 290.891 51.6223 290.77 51.2956C290.369 50.5339 290.168 49.6828 290.186 48.8221C290.183 47.688 290.265 46.5554 290.431 45.4336C290.284 45.5922 290.122 45.7368 289.949 45.8657C288.788 47.077 287.763 47.6615 286.992 47.6615C285.586 47.6615 284.807 46.6874 284.713 44.6543C284.864 42.4681 285.51 40.3448 286.602 38.445C287.907 35.9036 289.322 33.015 290.838 29.8129C289.359 30.503 287.961 31.3553 286.67 32.3543C284.925 33.7096 283.375 34.489 282.062 34.5822C281.428 34.6082 280.801 34.4397 280.266 34.0993C280.079 34.0683 279.902 33.9897 279.754 33.871C279.606 33.7524 279.49 33.5976 279.419 33.4216C279.411 33.3562 279.418 33.2898 279.439 33.2275C279.46 33.1651 279.496 33.1085 279.542 33.0619C279.589 33.0153 279.645 32.98 279.708 32.9586C279.77 32.9373 279.836 32.9305 279.902 32.9388C281.5 32.9388 283.875 31.6794 287.026 29.1606C288.328 28.1624 289.707 27.2701 291.151 26.4923C291.058 26.1026 290.906 25.7129 290.813 25.3317C290.525 24.7131 290.315 24.0616 290.186 23.3918C290.173 23.2886 290.185 23.184 290.221 23.0863C290.256 22.9886 290.315 22.9007 290.391 22.8298C290.466 22.7588 290.558 22.7067 290.658 22.6778C290.758 22.6489 290.863 22.6439 290.965 22.6633C291.861 22.7299 292.719 23.0502 293.439 23.5867C293.945 24.0239 294.316 24.5972 294.506 25.2385L295.717 25.0945C297.691 25.1708 298.708 25.8485 298.708 27.2123ZM296.573 14.6581C297.928 15.4375 298.657 16.0644 298.708 16.6489C298.759 17.2334 297.979 17.8602 296.573 18.6396C292.21 21.1131 289.398 22.3245 288.102 22.3245C287.373 22.3245 286.984 22.1296 286.984 21.74C286.98 21.6899 286.988 21.6397 287.007 21.5933C287.026 21.5469 287.056 21.5056 287.093 21.4727C287.131 21.4398 287.176 21.4162 287.225 21.4038C287.274 21.3913 287.324 21.3904 287.373 21.4011C288.39 21.3051 289.7 20.3846 291.304 18.6396C292.566 17.2842 293.244 16.31 293.244 15.6832C293.045 15.338 292.913 14.9587 292.854 14.565C292.854 14.1753 293.241 13.9805 294.015 13.9805C294.909 13.9921 295.787 14.2218 296.573 14.6497V14.6581ZM288.949 42.0537C289.533 41.4268 290.211 40.5967 290.982 39.631C291.033 38.6144 291.075 37.4962 291.126 36.2425C290.381 38.061 289.635 39.9952 288.89 42.0452L288.949 42.0537ZM322.113 33.4216C322.448 34.0823 322.614 34.8158 322.596 35.5563C322.596 37.1065 321.969 37.835 320.707 37.835C320.116 37.698 319.555 37.4509 319.055 37.1065C318.158 36.845 317.228 36.7138 316.294 36.7169H316.192C316.099 38.75 316.048 40.8847 315.997 43.0702C315.847 46.8481 315.408 50.6089 314.684 54.3198C314.396 55.438 314.151 56.014 313.905 56.014C313.515 56.014 313.278 55.3872 313.176 54.1758C313.075 52.9644 312.888 47.3396 312.787 36.9117C311.278 37.0324 309.783 37.2933 308.322 37.691C305.976 38.5599 303.796 39.8234 301.876 41.4268C301.441 41.8823 300.852 42.16 300.224 42.2061C299.482 42.1609 298.787 41.83 298.284 41.2828C297.863 40.9338 297.566 40.4586 297.437 39.9274C297.437 39.6394 297.632 39.4954 298.064 39.4954C299.495 39.3767 300.876 38.9116 302.088 38.14C304.332 36.7928 306.722 35.7044 309.212 34.8956C310.474 34.5059 311.685 34.1162 312.804 33.8282C312.753 28.9828 312.753 23.2563 312.753 16.6658C312.658 15.2547 312.414 13.8576 312.024 12.498C312.024 12.1083 312.312 11.9135 312.948 11.9135C313.47 11.88 313.993 11.978 314.468 12.1984C314.943 12.4189 315.355 12.7549 315.667 13.1757C316.268 14.2379 316.561 15.4463 316.514 16.6658C316.514 21.0284 316.412 26.5092 316.268 33.0574C317.596 32.7996 318.941 32.6383 320.292 32.5745C320.631 32.588 320.964 32.6691 321.271 32.8131C321.578 32.9572 321.853 33.1612 322.079 33.4131L322.113 33.4216ZM308.56 20.6726C310.305 21.452 311.228 22.3245 311.228 23.214C311.228 23.6036 310.796 24.0611 309.966 24.4253C308.595 25.1578 307.403 26.1848 306.476 27.4326C305.846 28.016 305.449 28.8073 305.358 29.6605C305.387 29.9169 305.479 30.1621 305.627 30.3736C305.775 30.5851 305.974 30.7564 306.205 30.8718C307.365 31.7189 308 32.4729 308 33.0574C308 34.1756 306.162 34.8532 302.469 35.1412C302.959 34.7708 303.304 34.2402 303.443 33.6419V30.0501C303.443 28.6947 304.29 27.1869 306.111 25.4419C306.58 24.9978 306.902 24.4216 307.035 23.79C306.855 23.0277 306.43 22.3458 305.823 21.8501C304.366 20.8844 303.638 19.9102 303.638 19.0377C305.369 19.2412 307.041 19.7946 308.551 20.6642L308.56 20.6726Z" fill="#243788"/>
<path d="M344.375 24.493C344.662 24.6113 344.912 24.804 345.1 25.0512C345.288 25.2984 345.406 25.5911 345.443 25.8992C345.485 26.1505 345.427 26.4083 345.281 26.6173C345.135 26.8263 344.914 26.97 344.663 27.0174C343.401 27.2123 342.19 27.4071 341.122 27.6019C340.97 28.711 340.888 29.8286 340.877 30.948V32.3034C340.998 32.1958 341.128 32.0993 341.266 32.0154C341.445 31.7789 341.67 31.5816 341.928 31.4359C342.186 31.2902 342.471 31.1991 342.766 31.1682C343.155 31.1682 343.35 31.3123 343.35 31.5579C342.503 32.7185 341.656 33.7859 340.928 34.76C340.928 37.3014 341.029 39.4615 341.173 41.2573C341.365 43.3921 341.461 45.3319 341.461 47.077C341.53 48.5102 341.211 49.9354 340.538 51.2024C339.953 52.1257 339.377 52.6086 338.793 52.6086C338.27 52.6319 337.751 52.5026 337.299 52.2364C336.848 51.9702 336.484 51.5786 336.252 51.1092C334.506 48.0088 333.151 46.1621 332.279 45.5776C331.694 45.0963 330.993 44.7778 330.246 44.6543C329.947 44.6372 329.666 44.5082 329.459 44.2931C329.252 44.0779 329.133 43.7925 329.127 43.4937C329.148 42.7345 329.45 42.01 329.974 41.4606C332.339 39.1382 334.849 36.9681 337.488 34.9633V31.1344C337.488 30.2873 337.488 29.3385 337.539 28.3728C336.421 28.6608 335.354 28.9997 334.388 29.2962C332.704 29.9578 330.946 30.4129 329.153 30.6515C328.756 30.6654 328.363 30.574 328.013 30.3865C327.664 30.199 327.37 29.9221 327.162 29.5842C326.742 29.1555 326.499 28.5834 326.484 27.9832C326.484 27.8391 326.679 27.7375 327.069 27.6443C329.102 27.5003 332.694 26.6786 337.785 25.2216V25.0267C338.073 22.796 338.217 21.3841 338.217 20.7912C338.207 19.9442 338.043 19.1062 337.734 18.3176C337.424 17.9201 337.209 17.4563 337.107 16.9623C337.107 16.5726 337.545 16.0869 338.42 15.5052C338.911 15.1076 339.493 14.8397 340.114 14.7259C341.419 14.7259 342.105 16.0812 342.198 18.6988C342.127 20.5032 341.932 22.3005 341.614 24.0779C341.806 24.031 342.001 23.9998 342.198 23.9848C342.948 24.0247 343.685 24.1968 344.375 24.493ZM332.516 43.697C334.101 44.386 335.762 44.8891 337.463 45.1964V38.8431C335.964 40.596 334.321 42.2198 332.55 43.697H332.516ZM363.452 20.6641C364.299 21.2486 364.714 21.7315 364.714 22.1211C364.714 22.5108 364.282 22.8751 363.435 22.8751L356.845 24.5269C356.506 25.5011 356.116 26.56 355.684 27.6273C355.684 27.9153 355.777 28.017 356.023 28.017C357.025 27.7739 358.05 27.6432 359.081 27.6273C359.375 27.6299 359.664 27.7019 359.924 27.8373C360.185 27.9727 360.41 28.1679 360.581 28.4067C361.062 29.6728 361.261 31.0285 361.165 32.3796C361.169 35.3196 360.487 38.2201 359.174 40.8507C358.785 41.5284 358.446 42.1638 358.158 42.689C359.96 44.3548 362.023 45.7141 364.265 46.7127C367.078 47.9749 369.018 49.0422 369.983 49.9571C370.529 50.3907 370.892 51.0136 371 51.7022C370.949 52.2867 370.271 52.5493 368.916 52.6679C367.231 52.5994 365.565 52.2885 363.969 51.7446C361.481 50.673 359.239 49.1049 357.378 47.1363C356.843 46.6886 356.342 46.2015 355.879 45.6792C355.193 46.3781 354.428 46.995 353.6 47.5175C351.996 48.5118 350.151 49.0479 348.264 49.0677C347.257 49.1111 346.257 48.8952 345.358 48.4408C345.189 48.394 345.036 48.3012 344.916 48.1725C344.796 48.0439 344.715 47.8846 344.68 47.7123C346.171 47.7868 347.662 47.5495 349.056 47.0157C350.451 46.4818 351.718 45.6631 352.779 44.6119C353.16 44.2136 353.517 43.7921 353.846 43.3497C351.577 40.6548 349.473 37.826 347.544 34.8786C347.541 34.8523 347.544 34.8259 347.553 34.801C347.562 34.7762 347.576 34.7536 347.595 34.735C347.613 34.7163 347.636 34.702 347.661 34.6932C347.686 34.6843 347.712 34.6811 347.738 34.6838C350.753 36.0284 353.471 37.9575 355.735 40.3594C356.179 39.4837 356.552 38.5745 356.853 37.6402C357.471 35.7575 357.83 33.7998 357.921 31.8205C357.943 31.7339 357.947 31.6435 357.931 31.5553C357.916 31.4672 357.881 31.3834 357.831 31.3096C357.78 31.2358 357.715 31.1736 357.638 31.1273C357.561 31.081 357.476 31.0517 357.387 31.0412C356.872 31.0961 356.375 31.2607 355.93 31.5241C355.335 31.9167 354.65 32.1501 353.939 32.2017C352.68 32.2017 352.05 31.3772 352.05 29.7282C352.142 28.3404 352.337 26.9613 352.635 25.6027L350.551 26.1364C350.02 26.1425 349.494 26.0447 349.001 25.8484C348.888 25.7767 348.797 25.6758 348.737 25.5565C348.678 25.4371 348.652 25.3038 348.662 25.1707C348.683 25.0067 348.755 24.8532 348.867 24.7318C348.979 24.6103 349.127 24.5269 349.289 24.493C350.589 24.171 351.868 23.7664 353.118 23.2817C353.312 22.1211 353.6 20.9098 353.897 19.5459C354.205 17.911 354.414 16.2589 354.524 14.5988C354.524 14.4548 354.431 14.0143 354.329 13.2434C354.329 12.9046 354.422 12.7097 354.719 12.7097C355.701 12.7753 356.628 13.1865 357.336 13.8703C358.205 15.0618 358.617 16.5259 358.497 17.9957C358.465 18.9643 358.317 19.9257 358.056 20.8589C358.987 20.2393 360.048 19.8422 361.157 19.6984C361.998 19.8233 362.796 20.1551 363.478 20.6641H363.452Z" fill="#243788"/>
<defs>
<clipPath id="clip0">
<rect width="99.9589" height="67.7687" fill="white"/>
</clipPath>
</defs>
</svg>
