<?xml version="1.0" encoding="utf-8"?>
<!-- Generator: Adobe Illustrator 19.2.1, SVG Export Plug-In . SVG Version: 6.00 Build 0)  -->
<svg version="1.1" id="圖層_1" xmlns="http://www.w3.org/2000/svg" xmlns:xlink="http://www.w3.org/1999/xlink" x="0px" y="0px"
	 viewBox="0 0 150 150" style="enable-background:new 0 0 150 150;" xml:space="preserve">
<style type="text/css">
	.st0{fill:#6592D5;}
	.st1{fill:#EA993A;}
	.st2{fill:#44C4BE;}
</style>
<path class="st0" d="M60.4,148.5c-0.3,0-0.6,0-1-0.1c-10.2-2.2-19.8-6.4-28.2-12.5c-8.4-6.1-15.5-13.9-20.8-22.8
	c-0.3-0.5-0.5-1.1-0.6-1.7c-0.1-0.6,0-1.2,0.1-1.8c0.2-0.6,0.4-1.1,0.8-1.6c0.4-0.5,0.8-0.9,1.3-1.2c0.5-0.3,1.1-0.5,1.7-0.6
	c0.6-0.1,1.2,0,1.8,0.1c1.2,0.3,2.2,1.1,2.8,2.1c4.6,7.9,10.9,14.7,18.3,20c7.4,5.3,15.8,9.1,24.8,11c1.1,0.2,2.1,0.9,2.8,1.8
	c0.7,0.9,1,2.1,0.9,3.2c-0.1,1.1-0.7,2.2-1.5,3C62.6,148.1,61.5,148.5,60.4,148.5z M90.2,148.3c-1.1,0-2.2-0.4-3.1-1.2
	c-0.8-0.8-1.4-1.8-1.5-2.9c-0.1-1.1,0.2-2.3,0.8-3.2c0.7-0.9,1.6-1.6,2.8-1.8c8.9-2,17.3-5.8,24.7-11.2c7.4-5.4,13.5-12.3,18.1-20.1
	l0-0.1c0.3-0.5,0.7-1,1.2-1.4c0.5-0.4,1-0.6,1.6-0.8c0.6-0.2,1.2-0.2,1.8-0.1c0.6,0.1,1.2,0.3,1.7,0.6c0.5,0.3,1,0.7,1.4,1.2
	c0.4,0.5,0.6,1,0.8,1.6c0.2,0.6,0.2,1.2,0.1,1.8c-0.1,0.6-0.3,1.2-0.6,1.7l0,0.1c-5.2,9-12.2,16.9-20.6,23
	c-8.4,6.2-18,10.5-28.2,12.7C90.8,148.3,90.5,148.3,90.2,148.3z M5,87c-1.1,0-2.2-0.4-3.1-1.2c-0.8-0.8-1.4-1.8-1.5-2.9
	c-1.1-10.4,0-20.8,3.2-30.7c3.2-9.9,8.4-19.1,15.3-26.9c0.4-0.5,0.9-0.9,1.4-1.1c0.5-0.3,1.1-0.4,1.8-0.5c0.6,0,1.2,0,1.8,0.2
	c0.6,0.2,1.1,0.5,1.6,0.9c0.5,0.4,0.8,0.9,1.1,1.5c0.3,0.6,0.4,1.2,0.5,1.8s-0.1,1.2-0.3,1.8c-0.2,0.6-0.5,1.1-0.9,1.6
	C19.7,38.2,15.1,46.3,12.4,55c-2.8,8.7-3.7,17.9-2.7,26.9c0.1,1.2-0.2,2.4-1,3.4c-0.8,1-1.9,1.6-3.1,1.7C5.3,87,5.2,87,5,87z
	 M145.1,86.4c-0.1,0-0.3,0-0.4,0c-1.2-0.1-2.3-0.7-3.1-1.7c-0.8-0.9-1.2-2.2-1-3.4c0.2-2.1,0.3-4.2,0.3-6.2c0-16.3-6-32-16.9-44.1
	c-0.4-0.5-0.7-1-0.9-1.6c-0.2-0.6-0.3-1.2-0.3-1.8c0-0.6,0.2-1.2,0.4-1.8c0.3-0.5,0.6-1,1.1-1.4c0.5-0.4,1-0.7,1.6-0.9
	c0.6-0.2,1.2-0.3,1.8-0.3c0.6,0,1.2,0.2,1.8,0.4s1,0.6,1.4,1.1C143.1,38.6,150,56.5,150,75.1c0,2.4-0.1,4.8-0.3,7.1
	c-0.1,1.1-0.6,2.2-1.5,3C147.3,85.9,146.2,86.4,145.1,86.4z M46.3,15.4c-1.1,0-2.1-0.4-2.9-1c-0.8-0.7-1.4-1.6-1.6-2.6
	c-0.2-1-0.1-2.1,0.4-3.1c0.5-0.9,1.3-1.7,2.2-2.1C54.1,2.2,64.5,0,75.1,0c10.3,0,20.4,2.1,29.8,6.2c1.1,0.5,2,1.4,2.5,2.6
	c0.4,1.1,0.4,2.4-0.1,3.5c-0.5,1.1-1.4,2-2.6,2.5c-1.1,0.4-2.4,0.4-3.5-0.1C93,11.1,84.1,9.2,75.1,9.3c-9.3,0-18.4,2-26.9,5.7
	C47.6,15.2,47,15.4,46.3,15.4z"/>
<path class="st1" d="M32.8,22.8c2.5,0,4.6-2,4.6-4.6c0-2.5-2-4.6-4.6-4.6c-2.5,0-4.6,2-4.6,4.6C28.2,20.7,30.2,22.8,32.8,22.8z"/>
<path class="st1" d="M114.3,22.8c2.5,0,4.6-2,4.6-4.6c0-2.5-2-4.6-4.6-4.6c-2.5,0-4.6,2-4.6,4.6C109.8,20.7,111.8,22.8,114.3,22.8z"
	/>
<path class="st1" d="M143.1,100c2.5,0,4.6-2,4.6-4.6c0-2.5-2-4.6-4.6-4.6s-4.6,2-4.6,4.6C138.5,97.9,140.5,100,143.1,100z"/>
<path class="st1" d="M75.7,149.3c2.5,0,4.6-2,4.6-4.6c0-2.5-2-4.6-4.6-4.6c-2.5,0-4.6,2-4.6,4.6C71.2,147.2,73.2,149.3,75.7,149.3z"
	/>
<path class="st1" d="M8.4,100.7c2.5,0,4.6-2,4.6-4.6c0-2.5-2-4.6-4.6-4.6c-2.5,0-4.6,2-4.6,4.6C3.8,98.7,5.9,100.7,8.4,100.7z"/>
<path class="st2" d="M118.5,42.1c-0.2-1.2-0.9-2.3-1.8-3.1c-0.9-0.8-2.1-1.2-3.4-1.2H38.1c-1.2,0-2.4,0.4-3.4,1.2
	c-0.9,0.8-1.6,1.9-1.8,3.1l-8.8,51.6c-0.5,3.1,1.9,6,5.2,6h30.9v13h-5.2c-0.7,0-1.3,0.3-1.8,0.8c-0.5,0.5-0.8,1.1-0.8,1.8v2.5
	c0,0.7,0.3,1.3,0.8,1.8c0.5,0.5,1.1,0.8,1.8,0.8l41.3,0c0.7,0,1.3-0.3,1.8-0.8c0.5-0.5,0.8-1.1,0.8-1.8v-2.5c0-0.7-0.3-1.3-0.8-1.8
	c-0.5-0.5-1.1-0.8-1.8-0.8h-5.2V99.8h30.9c3.3,0,5.7-2.9,5.2-6L118.5,42.1L118.5,42.1z M114.2,63.6H94.6l-1.8-18.1h18.3L114.2,63.6z
	 M64.7,63.6l1.8-18.1H85l1.8,18.1H64.7L64.7,63.6z M87.6,71.4L89.7,92H61.8l2.1-20.7H87.6L87.6,71.4z M40.4,45.6h18.3l-1.8,18.1
	H37.3L40.4,45.6z M36,71.4h20.1L54,92H32.5L36,71.4z M83.5,112.7l-15.5,0V99.8h15.5V112.7z M97.4,92l-2.1-20.7h20.1L119,92H97.4z"/>
</svg>
