<svg width="20" height="20" viewBox="0 0 20 20" fill="none" xmlns="http://www.w3.org/2000/svg">
<path d="M19.6133 9.06818L10.9336 0.386794C10.6758 0.128931 10.3359 0 10 0C9.66406 0 9.32422 0.128931 9.06641 0.386794L0.386719 9.06818C-0.128906 9.5839 -0.128906 10.4161 0.386719 10.9318L9.06641 19.6132C9.32422 19.8711 9.66016 20 10 20C10.3398 20 10.6758 19.8711 10.9336 19.6132L19.6133 10.9318C20.1289 10.42 20.1289 9.5839 19.6133 9.06818ZM9.375 18.1559L2.39062 11.1702L9.375 14.1629V18.1559ZM9.375 12.8033L1.70703 9.51748L9.375 1.84802V12.8033ZM10.625 18.1559V14.1629L17.6094 11.1702L10.625 18.1559ZM10.625 12.8033V1.84802L18.293 9.51748L10.625 12.8033Z" fill="#BDB6D4"/>
</svg>
