<svg id="諮詢分析" xmlns="http://www.w3.org/2000/svg" viewBox="0 0 810.55 806.53"><defs><style>.cls-1{fill:#243788;}.cls-2{fill:#aed037;}.cls-3{fill:#8d85a8;}</style></defs><title>icon_service-01</title><path class="cls-1" d="M483,827.57a25.11,25.11,0,0,1-5.22-.55A406.33,406.33,0,0,1,212.7,636.08a25,25,0,0,1,43.12-25.32,356.32,356.32,0,0,0,232.4,167.35A25,25,0,0,1,483,827.57Zm161-.77a25,25,0,0,1-5.38-49.41,356.17,356.17,0,0,0,231-169.24l0.21-.36a25,25,0,1,1,43.3,25l-0.17.3A404.21,404.21,0,0,1,649.44,826.2,25,25,0,0,1,644,826.8ZM183.83,495.47A25,25,0,0,1,159,473.11a406.2,406.2,0,0,1,99.49-311.16A25,25,0,1,1,296,195a354.5,354.5,0,0,0-87.25,272.77,25,25,0,0,1-22.21,27.5A25.27,25.27,0,0,1,183.83,495.47Zm756.75-3.55q-1.19,0-2.41-.12a25,25,0,0,1-22.51-27.26c1.06-11.13,1.6-22.45,1.6-33.65a355.05,355.05,0,0,0-91.43-238.34A25,25,0,0,1,863,159.06,405,405,0,0,1,967.26,430.9c0,12.78-.61,25.7-1.83,38.4A25,25,0,0,1,940.58,491.92ZM407.1,108.3a25,25,0,0,1-10.18-47.85A409.93,409.93,0,0,1,562.35,25.27,400.91,400.91,0,0,1,723.6,58.91a25,25,0,0,1-20,45.83A351.21,351.21,0,0,0,562.35,75.27a359.55,359.55,0,0,0-145.1,30.86A24.91,24.91,0,0,1,407.1,108.3Z" transform="translate(-156.72 -25.27)"/><circle class="cls-2" cx="177.07" cy="98.48" r="24.66"/><circle class="cls-2" cx="617.82" cy="98.48" r="24.66"/><circle class="cls-2" cx="773.07" cy="515.58" r="24.66"/><circle class="cls-2" cx="409.28" cy="781.87" r="24.66"/><circle class="cls-2" cx="45.49" cy="519.58" r="24.66"/><path class="cls-3" d="M752.7,318.08l-44.61-44.61A52.72,52.72,0,0,0,671,258.19H458.4a52.89,52.89,0,0,0-37.11,15.28l-44.61,44.61H266.08V557.73h60A29.88,29.88,0,0,0,356,528h8.53l79.29,71.61c29,23.52,69.17,24.09,99,3.56,11.72,10.12,24.37,14.9,38.52,14.9,17.06,0,33.08-6.94,45.74-22.49a52.58,52.58,0,0,0,60-15.75l24.56-30.27A51.41,51.41,0,0,0,721.77,528H776a29.94,29.94,0,0,0,29.9,29.71h60V318.08H752.7ZM311.07,527.74a15,15,0,1,1,15-15A15,15,0,0,1,311.07,527.74Zm365.53-6.47-24.46,30.18a7.56,7.56,0,0,1-10.59,1.12l-22.4-18.18L591,568.6c-5.62,6.84-14.06,4.5-16.87,2.25l-34.49-29.52-14.62,18c-13,16-36.74,18.46-51.83,6.19L382,483h-26V363h39.27l57.83-57.73,5.34-2.16h53.14l-36.27,33.27a67.08,67.08,0,0,0-4.12,94.94c13.87,15.18,57.36,38.61,95.13,4.12l7.69-7,101.41,82.29a7.66,7.66,0,0,1,1.12,10.59h0ZM775.94,483H711.09a52.52,52.52,0,0,0-7.22-7.22l-96.26-78.17L619.33,387a15,15,0,0,0,.94-21.18l-10.22-11a15.06,15.06,0,0,0-21.18-.94l-51.74,47.42c-8.9,8.15-24.09,8.81-32.43,0a22.24,22.24,0,0,1,1.12-31.77l61.48-56.33a37.3,37.3,0,0,1,25.31-9.84l78.45-.19a7,7,0,0,1,5.15,2.16L734,363.07h41.89V483Zm45,44.71a15,15,0,1,1,15-15A15,15,0,0,1,820.93,527.74Z" transform="translate(-156.72 -25.27)"/></svg>