<svg id="電廠建置" xmlns="http://www.w3.org/2000/svg" viewBox="0 0 810.55 806.53"><defs><style>.cls-1{fill:#243788;}.cls-2{fill:#aed037;}.cls-3{fill:#8d85a8;}</style></defs><title>icon_service-03</title><path class="cls-1" d="M483,827.57a25.11,25.11,0,0,1-5.22-.55A406.33,406.33,0,0,1,212.7,636.08a25,25,0,0,1,43.12-25.32,356.32,356.32,0,0,0,232.4,167.35A25,25,0,0,1,483,827.57Zm161-.77a25,25,0,0,1-5.38-49.41,356.17,356.17,0,0,0,231-169.24l0.21-.36a25,25,0,1,1,43.3,25l-0.17.3A404.21,404.21,0,0,1,649.44,826.2,25,25,0,0,1,644,826.8ZM183.83,495.47A25,25,0,0,1,159,473.11a406.2,406.2,0,0,1,99.49-311.16A25,25,0,1,1,296,195a354.5,354.5,0,0,0-87.25,272.77,25,25,0,0,1-22.21,27.5A25.27,25.27,0,0,1,183.83,495.47Zm756.75-3.55q-1.19,0-2.41-.12a25,25,0,0,1-22.51-27.26c1.06-11.13,1.6-22.45,1.6-33.65a355.05,355.05,0,0,0-91.43-238.34A25,25,0,0,1,863,159.06,405,405,0,0,1,967.26,430.9c0,12.78-.61,25.7-1.83,38.4A25,25,0,0,1,940.58,491.92ZM407.1,108.3a25,25,0,0,1-10.18-47.85A409.93,409.93,0,0,1,562.35,25.27,400.91,400.91,0,0,1,723.6,58.91a25,25,0,0,1-20,45.83A351.21,351.21,0,0,0,562.35,75.27a359.55,359.55,0,0,0-145.1,30.86A24.91,24.91,0,0,1,407.1,108.3Z" transform="translate(-156.72 -25.27)"/><circle class="cls-2" cx="177.07" cy="98.48" r="24.66"/><circle class="cls-2" cx="617.82" cy="98.48" r="24.66"/><circle class="cls-2" cx="773.07" cy="515.58" r="24.66"/><circle class="cls-2" cx="409.28" cy="781.87" r="24.66"/><circle class="cls-2" cx="45.49" cy="519.58" r="24.66"/><path class="cls-3" d="M797.26,252.91a28.27,28.27,0,0,0-28-23.31H362.77a28.27,28.27,0,0,0-28,23.31l-47.35,279c-2.89,17,10.47,32.49,28,32.49H482.3v70l-27.88,0a14,14,0,0,0-13.93,13.93l0,13.71a14,14,0,0,0,14,14l223.15-.23a14,14,0,0,0,13.93-13.93l0-13.71a14,14,0,0,0-14-14l-27.87,0V564.4H816.59c17.56,0,30.92-15.48,28-32.49l-47.34-279h0ZM773.78,369.1H667.94l-9.77-97.65h99Zm-267.66,0,9.77-97.65H616.12l9.77,97.65H506.11Zm124,41.85,11.16,111.6H490.77l11.16-111.6H630.08ZM374.81,271.45h99l-9.77,97.65H358.23Zm-23.68,139.5H459.88l-11.16,111.6H332.19ZM607.85,634.24l-83.7.09V564.4h83.7v69.84Zm75.43-111.69-11.16-111.6H780.87l18.94,111.6H683.28Z" transform="translate(-156.72 -25.27)"/></svg>