<svg id="規劃設計" xmlns="http://www.w3.org/2000/svg" viewBox="0 0 810.55 806.53"><defs><style>.cls-1{fill:#243788;}.cls-2{fill:#aed037;}.cls-3{fill:#8d85a8;}</style></defs><title>icon_service-02</title><path class="cls-1" d="M483,827.57a25.11,25.11,0,0,1-5.22-.55A406.33,406.33,0,0,1,212.7,636.08a25,25,0,0,1,43.12-25.32,356.32,356.32,0,0,0,232.4,167.35A25,25,0,0,1,483,827.57Zm161-.77a25,25,0,0,1-5.38-49.41,356.17,356.17,0,0,0,231-169.24l0.21-.36a25,25,0,1,1,43.3,25l-0.17.3A404.21,404.21,0,0,1,649.44,826.2,25,25,0,0,1,644,826.8ZM183.83,495.47A25,25,0,0,1,159,473.11a406.2,406.2,0,0,1,99.49-311.16A25,25,0,1,1,296,195a354.5,354.5,0,0,0-87.25,272.77,25,25,0,0,1-22.21,27.5A25.27,25.27,0,0,1,183.83,495.47Zm756.75-3.55q-1.19,0-2.41-.12a25,25,0,0,1-22.51-27.26c1.06-11.13,1.6-22.45,1.6-33.65a355.05,355.05,0,0,0-91.43-238.34A25,25,0,0,1,863,159.06,405,405,0,0,1,967.26,430.9c0,12.78-.61,25.7-1.83,38.4A25,25,0,0,1,940.58,491.92ZM407.1,108.3a25,25,0,0,1-10.18-47.85A409.93,409.93,0,0,1,562.35,25.27,400.91,400.91,0,0,1,723.6,58.91a25,25,0,0,1-20,45.83A351.21,351.21,0,0,0,562.35,75.27a359.55,359.55,0,0,0-145.1,30.86A24.91,24.91,0,0,1,407.1,108.3Z" transform="translate(-156.72 -25.27)"/><circle class="cls-2" cx="177.07" cy="98.48" r="24.66"/><circle class="cls-2" cx="617.82" cy="98.48" r="24.66"/><circle class="cls-2" cx="773.07" cy="515.58" r="24.66"/><circle class="cls-2" cx="409.28" cy="781.87" r="24.66"/><circle class="cls-2" cx="45.49" cy="519.58" r="24.66"/><path class="cls-3" d="M760.33,451.31A278.38,278.38,0,0,0,799,405.2c5-7.6,2.23-18.06-5.64-22.62l-13.79-8c-7.39-4.28-16.54-1.77-21.29,5.34a229.9,229.9,0,0,1-21.73,27.24L660.28,265.4a95.75,95.75,0,1,0-188.55,0L395.46,407.11a221.77,221.77,0,0,1-21.76-27.19c-4.75-7.11-13.9-9.63-21.29-5.34l-13.79,8c-7.87,4.56-10.66,15-5.64,22.62,11.17,16.92,24.68,31.66,39.06,45.44L310,565.89l7.91,65.75a39.74,39.74,0,0,0,55.28,32l61.44-26.33,62.2-115.57a270.84,270.84,0,0,0,138.48.26l62,115.3,61.48,26.34a39.46,39.46,0,0,0,35.64-2.17A39.53,39.53,0,0,0,814,631.68L822,565.87,760.33,451.31h0ZM566,202.95a48,48,0,1,1-47.86,48A47.93,47.93,0,0,1,566,202.95ZM400.48,599.8l-36.3,15.56-4.83-40.09L497.73,318.12a95.36,95.36,0,0,0,40.93,24.37l0.15,0.28ZM566,482.93a221.65,221.65,0,0,1-45.58-5L566,393.27l45.56,84.65A228.12,228.12,0,0,1,566,482.93Zm27.18-140.17,0.15-.28a95.3,95.3,0,0,0,40.93-24.37L699.83,440a232.87,232.87,0,0,1-41.8,23.3l-64.85-120.5h0Zm174.64,272.6-36.3-15.56-50.76-94.31a280.47,280.47,0,0,0,41.83-23.24l50.06,93-4.83,40.08h0Z" transform="translate(-156.72 -25.27)"/></svg>