<svg id="維護營運_拷貝" data-name="維護營運 拷貝" xmlns="http://www.w3.org/2000/svg" viewBox="0 0 810.55 806.53"><defs><style>.cls-1{fill:#243788;}.cls-2{fill:#aed037;}.cls-3{fill:#8d85a8;}</style></defs><title>icon_service-04</title><path class="cls-1" d="M483,827.57a25.11,25.11,0,0,1-5.22-.55A406.33,406.33,0,0,1,212.7,636.08a25,25,0,0,1,43.12-25.32,356.32,356.32,0,0,0,232.4,167.35A25,25,0,0,1,483,827.57Zm161-.77a25,25,0,0,1-5.38-49.41,356.17,356.17,0,0,0,231-169.24l0.21-.36a25,25,0,1,1,43.3,25l-0.17.3A404.21,404.21,0,0,1,649.44,826.2,25,25,0,0,1,644,826.8ZM183.83,495.47A25,25,0,0,1,159,473.11a406.2,406.2,0,0,1,99.49-311.16A25,25,0,1,1,296,195a354.5,354.5,0,0,0-87.25,272.77,25,25,0,0,1-22.21,27.5A25.27,25.27,0,0,1,183.83,495.47Zm756.75-3.55q-1.19,0-2.41-.12a25,25,0,0,1-22.51-27.26c1.06-11.13,1.6-22.45,1.6-33.65a355.05,355.05,0,0,0-91.43-238.34A25,25,0,0,1,863,159.06,405,405,0,0,1,967.26,430.9c0,12.78-.61,25.7-1.83,38.4A25,25,0,0,1,940.58,491.92ZM407.1,108.3a25,25,0,0,1-10.18-47.85A409.93,409.93,0,0,1,562.35,25.27,400.91,400.91,0,0,1,723.6,58.91a25,25,0,0,1-20,45.83A351.21,351.21,0,0,0,562.35,75.27a359.55,359.55,0,0,0-145.1,30.86A24.91,24.91,0,0,1,407.1,108.3Z" transform="translate(-156.72 -25.27)"/><circle class="cls-2" cx="177.07" cy="98.48" r="24.66"/><circle class="cls-2" cx="617.82" cy="98.48" r="24.66"/><circle class="cls-2" cx="773.07" cy="515.58" r="24.66"/><circle class="cls-2" cx="409.28" cy="781.87" r="24.66"/><circle class="cls-2" cx="45.49" cy="519.58" r="24.66"/><path class="cls-3" d="M654.66,472.33H600.77a27,27,0,0,0-26.95,26.95V607.06A27,27,0,0,0,600.77,634h53.89a27,27,0,0,0,26.95-26.95V499.27A27,27,0,0,0,654.66,472.33ZM641.19,593.59H614.24V512.75h26.95v80.84ZM789.4,364.54H735.51a27,27,0,0,0-26.95,26.95V607.06A27,27,0,0,0,735.51,634H789.4a27,27,0,0,0,26.95-26.95V391.48A27,27,0,0,0,789.4,364.54ZM775.93,593.59H749V405h26.95V593.59Zm-256-229.05H466a27,27,0,0,0-26.95,26.95V607.06A27,27,0,0,0,466,634h53.89a27,27,0,0,0,26.95-26.95V391.48A27,27,0,0,0,519.93,364.54ZM506.45,593.59H479.51V405h26.95V593.59ZM385.19,499.27H331.29a27,27,0,0,0-26.95,26.95v80.84A27,27,0,0,0,331.29,634h53.89a27,27,0,0,0,26.95-26.95V526.22A27,27,0,0,0,385.19,499.27Zm-13.47,94.32H344.77V539.69h26.95v53.89ZM358.24,418.43a39.92,39.92,0,0,0,38.92-50.76l85.47-85.47a38,38,0,0,0,25-1.34l80.29,64.23a40,40,0,0,0-.6,6,40.42,40.42,0,1,0,80.84,0,41,41,0,0,0-.6-6l80.29-64.23A40.37,40.37,0,1,0,722,243.27a41,41,0,0,0,.6,6l-80.29,64.23a39.16,39.16,0,0,0-29.27,0L532.8,249.25a40,40,0,0,0,.6-6,40.43,40.43,0,1,0-79.34,10.34l-85.47,85.47A40.35,40.35,0,1,0,358.24,418.43Z" transform="translate(-156.72 -25.27)"/></svg>