<?xml version="1.0" encoding="utf-8"?>
<!-- Generator: Adobe Illustrator 19.2.1, SVG Export Plug-In . SVG Version: 6.00 Build 0)  -->
<svg version="1.1" id="圖層_1" xmlns="http://www.w3.org/2000/svg" xmlns:xlink="http://www.w3.org/1999/xlink" x="0px" y="0px"
	 viewBox="0 0 150 150" style="enable-background:new 0 0 150 150;" xml:space="preserve">
<style type="text/css">
	.st0{fill:#6592D5;}
	.st1{fill:#EA993A;}
	.st2{fill:#44C4BE;}
</style>
<path class="st0" d="M60.4,149.2c-0.3,0-0.6,0-1-0.1c-10.2-2.2-19.8-6.5-28.2-12.6c-8.4-6.1-15.5-13.9-20.8-22.9
	c-0.3-0.5-0.5-1.1-0.6-1.7c-0.1-0.6,0-1.2,0.1-1.8c0.2-0.6,0.4-1.1,0.8-1.6c0.4-0.5,0.8-0.9,1.3-1.2c0.5-0.3,1.1-0.5,1.7-0.6
	c0.6-0.1,1.2,0,1.8,0.1c1.2,0.3,2.2,1.1,2.8,2.1c4.6,7.9,10.9,14.7,18.3,20.1c7.4,5.4,15.8,9.1,24.8,11c1.1,0.2,2.1,0.9,2.8,1.8
	c0.7,0.9,1,2.1,0.9,3.2c-0.1,1.1-0.7,2.2-1.5,3C62.6,148.8,61.5,149.2,60.4,149.2z M90.2,149.1c-1.1,0-2.2-0.4-3.1-1.2
	c-0.8-0.8-1.4-1.8-1.5-3c-0.1-1.1,0.2-2.3,0.8-3.2c0.7-0.9,1.6-1.6,2.8-1.8c8.9-2,17.3-5.8,24.7-11.2c7.4-5.4,13.5-12.3,18.1-20.2
	l0-0.1c0.3-0.5,0.7-1,1.2-1.4c0.5-0.4,1-0.7,1.6-0.8c0.6-0.2,1.2-0.2,1.8-0.1c0.6,0.1,1.2,0.3,1.7,0.6c0.5,0.3,1,0.7,1.4,1.2
	c0.4,0.5,0.6,1,0.8,1.6c0.2,0.6,0.2,1.2,0.1,1.8c-0.1,0.6-0.3,1.2-0.6,1.7l0,0.1c-5.2,9.1-12.2,16.9-20.6,23.1
	c-8.4,6.2-18,10.5-28.2,12.8C90.8,149,90.5,149.1,90.2,149.1z M5,87.4c-1.1,0-2.2-0.4-3.1-1.2c-0.8-0.8-1.4-1.8-1.5-3
	c-1.1-10.4,0-20.9,3.2-30.9c3.2-10,8.4-19.2,15.3-27c0.4-0.5,0.9-0.9,1.4-1.1c0.5-0.3,1.1-0.4,1.8-0.5c0.6,0,1.2,0,1.8,0.2
	c0.6,0.2,1.1,0.5,1.6,0.9c0.5,0.4,0.8,0.9,1.1,1.5c0.3,0.6,0.4,1.2,0.5,1.8c0,0.6-0.1,1.2-0.3,1.8c-0.2,0.6-0.5,1.1-0.9,1.6
	c-6.1,6.9-10.6,14.9-13.4,23.7c-2.8,8.7-3.7,18-2.7,27.1c0.1,1.2-0.2,2.5-1,3.4c-0.8,1-1.9,1.6-3.1,1.7C5.3,87.4,5.2,87.4,5,87.4z
	 M145.1,86.8c-0.1,0-0.3,0-0.4,0c-1.2-0.1-2.3-0.7-3.1-1.7c-0.8-1-1.2-2.2-1-3.4c0.2-2.1,0.3-4.2,0.3-6.3c0-16.4-6-32.2-16.9-44.3
	c-0.4-0.5-0.7-1-0.9-1.6c-0.2-0.6-0.3-1.2-0.3-1.8c0-0.6,0.2-1.2,0.4-1.8c0.3-0.6,0.6-1,1.1-1.5c0.5-0.4,1-0.7,1.6-0.9
	c0.6-0.2,1.2-0.3,1.8-0.3c0.6,0,1.2,0.2,1.8,0.4c0.5,0.3,1,0.6,1.4,1.1C143.1,38.7,150,56.8,150,75.4c0,2.4-0.1,4.8-0.3,7.1
	c-0.1,1.2-0.6,2.2-1.5,3C147.3,86.4,146.2,86.8,145.1,86.8z M46.3,15.4c-1.1,0-2.1-0.4-2.9-1c-0.8-0.7-1.4-1.6-1.6-2.6
	c-0.2-1-0.1-2.1,0.4-3.1c0.5-0.9,1.3-1.7,2.2-2.1C54.1,2.2,64.5,0,75.1,0c10.3,0,20.4,2.1,29.8,6.3c1.1,0.5,2,1.4,2.5,2.6
	c0.4,1.1,0.4,2.4-0.1,3.6c-0.5,1.1-1.4,2-2.6,2.5c-1.1,0.5-2.4,0.4-3.5-0.1C93,11.2,84.1,9.3,75.1,9.3c-9.3,0-18.4,2-26.9,5.7
	C47.6,15.3,47,15.4,46.3,15.4z"/>
<path class="st1" d="M32.8,22.9c2.5,0,4.6-2.1,4.6-4.6c0-2.5-2-4.6-4.6-4.6c-2.5,0-4.6,2.1-4.6,4.6C28.2,20.8,30.2,22.9,32.8,22.9z"
	/>
<path class="st1" d="M114.3,22.9c2.5,0,4.6-2.1,4.6-4.6c0-2.5-2-4.6-4.6-4.6c-2.5,0-4.6,2.1-4.6,4.6
	C109.8,20.8,111.8,22.9,114.3,22.9z"/>
<path class="st1" d="M143.1,100.5c2.5,0,4.6-2.1,4.6-4.6c0-2.5-2-4.6-4.6-4.6s-4.6,2.1-4.6,4.6C138.5,98.4,140.5,100.5,143.1,100.5z
	"/>
<path class="st1" d="M75.7,150c2.5,0,4.6-2.1,4.6-4.6s-2-4.6-4.6-4.6c-2.5,0-4.6,2.1-4.6,4.6S73.2,150,75.7,150z"/>
<path class="st1" d="M8.4,101.2c2.5,0,4.6-2.1,4.6-4.6c0-2.5-2-4.6-4.6-4.6c-2.5,0-4.6,2.1-4.6,4.6C3.8,99.2,5.9,101.2,8.4,101.2z"
	/>
<path class="st2" d="M111.7,79.2c2.7-2.6,5.1-5.5,7.2-8.6c0.9-1.4,0.4-3.4-1-4.2l-2.6-1.5c-1.4-0.8-3.1-0.3-3.9,1
	c-1.2,1.8-2.6,3.5-4,5.1L93.2,44.7c0.5-2.6,0.3-5.2-0.3-7.7c-0.7-2.5-1.9-4.9-3.5-6.8c-1.7-2-3.7-3.6-6.1-4.7
	c-2.3-1.1-4.9-1.7-7.5-1.7c-2.6,0-5.1,0.6-7.5,1.7c-2.3,1.1-4.4,2.7-6.1,4.7c-1.7,2-2.9,4.3-3.5,6.8c-0.7,2.5-0.8,5.1-0.3,7.7
	L44.2,71c-1.5-1.6-2.8-3.3-4-5.1c-0.9-1.3-2.6-1.8-3.9-1l-2.6,1.5c-1.5,0.8-2,2.8-1,4.2c2.1,3.1,4.6,5.9,7.2,8.5l-11.5,21.4
	l1.5,12.2c0.1,1.1,0.5,2.2,1.2,3.2c0.6,1,1.5,1.8,2.5,2.3c1,0.6,2.1,0.9,3.3,1c1.1,0.1,2.3-0.1,3.3-0.6l11.4-4.9l11.5-21.5
	c8.4,2.2,17.2,2.3,25.6,0l11.5,21.4l11.4,4.9c1.1,0.5,2.2,0.7,3.3,0.6c1.1-0.1,2.3-0.4,3.3-1c1-0.6,1.8-1.4,2.5-2.3
	c0.6-1,1-2.1,1.2-3.2l1.5-12.2L111.7,79.2z M75.7,33c1.8,0,3.5,0.5,4.9,1.5c1.5,1,2.6,2.4,3.3,4c0.7,1.6,0.9,3.4,0.5,5.2
	c-0.3,1.7-1.2,3.3-2.4,4.6c-1.2,1.3-2.8,2.1-4.5,2.5c-1.7,0.3-3.5,0.2-5.1-0.5c-1.6-0.7-3-1.8-4-3.3c-1-1.5-1.5-3.2-1.5-5
	c0-1.2,0.2-2.3,0.7-3.4c0.4-1.1,1.1-2.1,1.9-2.9c0.8-0.8,1.8-1.5,2.9-1.9C73.4,33.3,74.6,33,75.7,33z M45.1,106.9l-6.7,2.9l-0.9-7.5
	l25.6-47.8c2.1,2.1,4.7,3.7,7.6,4.5l0,0.1L45.1,106.9z M75.7,85.1c-2.8,0-5.7-0.3-8.4-0.9l8.4-15.7l8.4,15.7
	C81.4,84.8,78.6,85.1,75.7,85.1z M80.8,59L80.8,59c2.9-0.9,5.5-2.5,7.6-4.6l12.1,22.7c-2.4,1.7-5,3.2-7.7,4.3L80.8,59L80.8,59z
	 M113.1,109.7l-6.7-2.9L97,89.3c2.7-1.2,5.3-2.7,7.7-4.3l9.3,17.3L113.1,109.7L113.1,109.7z"/>
</svg>
