<?xml version="1.0" encoding="utf-8"?>
<!-- Generator: Adobe Illustrator 19.2.1, SVG Export Plug-In . SVG Version: 6.00 Build 0)  -->
<svg version="1.1" xmlns="http://www.w3.org/2000/svg" xmlns:xlink="http://www.w3.org/1999/xlink" x="0px" y="0px"
	 viewBox="0 0 207 107" style="enable-background:new 0 0 207 107;" xml:space="preserve">
<style type="text/css">
	.st0{clip-path:url(#SVGID_2_);}
	.st1{fill:#FFFFFF;}
</style>
<g id="圖層_1">
	<g>
		<defs>
			<rect id="SVGID_1_" x="56" y="0.2" width="82" height="55"/>
		</defs>
		<clipPath id="SVGID_2_">
			<use xlink:href="#SVGID_1_"  style="overflow:visible;"/>
		</clipPath>
		<g class="st0">
			<path class="st1" d="M76,18.5c-1,0-2,0.3-2.8,1c-0.4,0.3-0.7,0.7-0.8,1.1c-0.2,0.4-0.3,0.9-0.2,1.4c0,1,0.4,2,1.1,2.8
				c0.7,0.8,1.5,1.5,2.5,2c1,0.5,2,1.1,3.2,1.8c1.2,0.6,2.2,1.2,3.2,1.8c1,0.6,1.8,1.3,2.5,2.1c0.7,0.8,1,1.8,1.1,2.8
				c0.1,2-0.8,3.7-2.7,5.1c-1.9,1.4-4.4,2.2-7.5,2.3c-3.1,0.1-5.6-0.3-7.5-1.4c-1.9-1.1-2.8-2.3-2.9-3.7c-0.1-0.6,0-1.3,0.3-1.9
				c0.2-0.6,0.6-1.1,1.1-1.5c1.1-0.9,2.5-1.4,3.9-1.3c0.4,0,0.9,0,1.3,0.1c-0.7,0.9-1.1,2-1.1,3.2c0,0.5,0.1,1.1,0.4,1.6
				c0.2,0.5,0.6,0.9,1,1.3c0.5,0.4,1,0.7,1.6,0.9c0.6,0.2,1.2,0.3,1.8,0.2c1.2,0,2.4-0.4,3.4-1c0.4-0.2,0.7-0.6,1-1
				c0.2-0.4,0.3-0.9,0.3-1.4c0-0.9-0.4-1.8-1-2.5c-0.7-0.7-1.5-1.3-2.4-1.8c-1-0.5-2-1-3.1-1.7c-1.1-0.6-2.2-1.3-3.2-1.9
				c-1-0.7-1.8-1.5-2.5-2.5c-0.7-1-1-2.2-1.1-3.4c-0.1-1,0.1-1.9,0.6-2.8c0.4-0.9,1.1-1.6,1.9-2.1c1.7-1.3,4-2,7-2.1
				s5.2,0.4,6.8,1.4c1.6,1.1,2.4,2.2,2.4,3.5c0,0.6-0.1,1.2-0.3,1.8c-0.2,0.6-0.6,1.1-1,1.5c-1.1,0.9-2.4,1.5-3.9,1.4
				c-0.5,0-1.1,0-1.6-0.1c1.2-1.1,1.8-2.3,1.7-3.5c0-0.5-0.1-1-0.3-1.5c-0.2-0.5-0.6-0.9-1-1.2C78.2,18.8,77.1,18.5,76,18.5L76,18.5
				z"/>
			<path class="st1" d="M88.8,42.1c-0.3-0.2-0.6-0.6-0.8-0.9c-0.2-0.4-0.3-0.8-0.2-1.2c0-1,0.3-4.1,0.9-9.3c0.7-5.2,1-8.9,0.9-11.1
				c-0.1-2.2-0.3-3.6-0.7-4.3c2.7,0.1,4.4,0.9,5.3,2.4c2-1,4.3-1.5,6.5-1.6c2.4-0.1,4.3,0.5,5.8,1.7c0.7,0.5,1.3,1.2,1.6,2
				c0.4,0.8,0.6,1.6,0.6,2.5c0.1,2.3-0.8,4.3-2.7,6.2c-1.1,1-2.3,1.8-3.6,2.3c-1.6,0.6-3.3,1-5,1c-0.7,0-1.5,0-2.2,0l-0.2-1.4h0.3
				c2.9-0.1,5.2-1.1,6.9-3c1.1-1.1,1.6-2.6,1.6-4.2c-0.1-2.1-1.2-3.5-3.2-4c-1.8-0.5-3.7-0.3-5.8,0.6v0.1c0,0.8-0.2,3.5-0.8,8.1
				c-0.5,3.8-0.7,7.6-0.7,11.5c0,1.1,0.1,2.1,0.4,3.2c-0.8,0.1-1.4,0.1-1.6,0.1C90.5,42.6,89.4,42.5,88.8,42.1z"/>
			<path class="st1" d="M122,30.4l-3.6,0.1c-1.1,0-1.9,0.1-2.5,0.1c-0.2,2.4-0.4,4.8-0.3,7.2c5.9-0.2,10.2-0.8,13-1.7
				c-0.1,1.4-0.6,2.7-1.5,3.7c-0.4,0.4-0.9,0.8-1.5,1c-0.6,0.2-1.2,0.4-1.8,0.4c-0.4,0-1.5,0-3.4-0.1c-1.8-0.1-3.8-0.1-5.8,0
				c-2,0.1-4,0.3-6,0.8c0.2-1,0.9-1.9,1.7-2.5v-0.1c0-1.1,0.2-3.7,0.7-7.8c-0.6,0.2-1.1,0.4-1.6,0.6c-0.1-0.5-0.1-0.8-0.1-1
				c-0.1-1.4,0.6-2.3,2.1-2.8c0.3-2.8,0.5-5.3,0.6-7.5c-0.9,0-1.5-0.2-1.8-0.5c-0.3-0.3-0.4-0.9-0.4-1.8c0-0.6,0.1-1.3,0.2-1.9
				c3.1,0.2,6.2,0.2,9.3,0.1c3.3-0.1,6.6-0.5,9.8-1.1c-0.3,2.2-1.8,3.6-4.6,4.1c-2.5,0.4-4.9,0.7-7.4,0.8c0,0.2-0.3,2.7-0.8,7.3
				c1.5,0,2.5,0,3.1-0.1c2.4-0.1,4-0.5,5-1.2c0.1,0.3,0.1,0.6,0.1,0.9C124.5,29.4,123.7,30.3,122,30.4z"/>
			<path class="st1" d="M97,0.2c-22.6,0-41,12.3-41,27.5c0,15.2,18.4,27.5,41,27.5c22.6,0,41-12.3,41-27.5
				C138,12.5,119.6,0.2,97,0.2z M97,53.7c-20.1,0-36.5-11-36.5-24.5S76.9,4.8,97,4.8c20.1,0,36.5,11,36.5,24.5S117.1,53.7,97,53.7
				L97,53.7z"/>
		</g>
	</g>
</g>
<g id="圖層_3">
	<g>
		<path class="st1" d="M8.6,74.5c-0.8,0-1.4,0.2-1.9,0.7c-0.5,0.5-0.8,1.1-0.8,2s0.2,1.6,0.7,2.3c0.4,0.7,1,1.3,1.6,1.7
			c0.6,0.5,1.3,1,2.1,1.5s1.5,1.1,2.1,1.6s1.2,1.1,1.6,1.8c0.4,0.7,0.7,1.5,0.7,2.3c0,1.6-0.7,2.9-2,4.1c-1.3,1.1-3,1.7-5.1,1.7
			c-2.1,0-3.8-0.5-5-1.4c-1.2-0.9-1.9-1.9-1.9-3.1s0.3-2,1-2.7c0.7-0.6,1.6-1,2.6-1c0.3,0,0.6,0,0.9,0.1c-0.5,0.8-0.8,1.6-0.8,2.6
			s0.3,1.7,0.8,2.4c0.6,0.7,1.3,1,2.3,1c0.9,0,1.7-0.2,2.4-0.7c0.6-0.5,1-1.1,1-1.9c0-0.8-0.2-1.4-0.6-2c-0.4-0.6-1-1.1-1.6-1.5
			S7.3,85,6.6,84.5s-1.4-1.1-2.1-1.6s-1.2-1.2-1.6-2.1C2.5,79.9,2.2,79,2.2,78c0-1.6,0.6-2.9,1.8-3.9s2.8-1.5,4.8-1.5
			s3.5,0.5,4.6,1.4c1,0.9,1.6,1.9,1.6,2.9c0,1-0.3,1.9-1,2.6c-0.7,0.7-1.5,1-2.6,1c-0.4,0-0.7,0-1.1-0.1c0.8-0.9,1.3-1.8,1.3-2.8
			c0-1-0.3-1.7-0.8-2.3C10.1,74.8,9.4,74.5,8.6,74.5z"/>
		<path class="st1" d="M22.9,74.1c0.1,0.3,0.2,0.5,0.2,0.8s0,0.7,0,1.3c0,0.6-0.2,2.4-0.6,5.3l-0.2,1.5c2.3-1.9,4.3-3.8,5.9-5.5
			c1.6-1.8,2.7-3.3,3.4-4.6c0.6,1,0.8,2,0.8,2.9c0,1-0.5,1.9-1.5,2.9c-1,1-2.4,2.2-4.4,3.7c1.2,3.8,2.5,6.7,4,8.8
			c0.6,0.9,1.4,1.8,2.4,2.9c-0.6,0.2-1.3,0.3-1.9,0.3c-0.6,0-1.3-0.2-2-0.6c-0.7-0.4-1.2-0.9-1.7-1.4c-0.5-0.6-1-1.3-1.5-2.3
			c-0.7-1.4-1.5-3.2-2.4-5.5c-0.5,0.4-1,0.7-1.6,1.1c-0.3,2.6-0.5,4.5-0.5,5.8s0.1,2.3,0.4,2.8c-1.5-0.4-2.5-0.9-3-1.5
			c-0.5-0.6-0.8-1.5-0.8-2.6c0-0.7,0.2-2.3,0.5-5c0.6-4.4,1-7.8,1-10.2c0-0.5,0-1.2-0.1-2.1c1.3,0.1,2.3,0.3,2.9,0.6
			C22.6,73.6,22.8,73.8,22.9,74.1z"/>
		<path class="st1" d="M40.7,83.1l0.2,1c1.6-2.5,2.9-4.8,3.8-6.9c1-2.2,1.6-3.9,1.7-5.1c1.3,0.7,1.9,1.7,1.9,2.9
			c0,1.3-2.2,5-6.5,11.3c-0.3,2.3-0.4,4.1-0.4,5.3c0,1.3,0.1,2.2,0.4,2.7c-1.5-0.4-2.5-0.9-3-1.5c-0.5-0.6-0.8-1.4-0.8-2.4
			s0.1-2.3,0.4-4.1c-1.8-6.5-3.4-10.8-4.8-12.8c0.7-0.4,1.4-0.7,2.2-0.7c0.4,0,0.8,0,1,0.1c0.3,0.1,0.6,0.3,0.8,0.5
			c0.3,0.3,0.5,0.6,0.7,1.1c0.2,0.4,0.4,1.1,0.7,1.9C39.5,77.7,40,80,40.7,83.1z"/>
		<path class="st1" d="M59.1,93.4c-0.4-0.3-0.6-0.9-0.6-1.7s0.3-3.2,0.9-7.3c0.6-4.1,0.9-7,0.9-8.7s-0.1-2.9-0.4-3.4
			c1.7,0.1,2.9,0.8,3.4,2.1c1.3-0.7,2.8-1.1,4.4-1.1s2.8,0.5,3.8,1.5c0.9,1,1.4,2.2,1.4,3.6c0,1.8-0.7,3.4-2,4.8
			c-0.6,0.7-1.5,1.2-2.5,1.7s-2.1,0.6-3.3,0.6c-0.5,0-1,0-1.5-0.1l-0.1-1.1c0.1,0,0.1,0,0.2,0c1.9,0,3.5-0.7,4.6-2.2
			c0.8-1,1.2-2.1,1.2-3.2c0-1.7-0.7-2.8-2-3.3c-1.1-0.4-2.4-0.3-3.9,0.3v0.1c0,0.7-0.2,2.8-0.7,6.4c-0.5,3.6-0.7,6.6-0.7,9
			c0,1.1,0.1,1.9,0.2,2.5c-0.5,0-0.9,0.1-1.1,0.1C60.3,93.9,59.6,93.8,59.1,93.4z"/>
		<path class="st1" d="M82.2,93.5c-0.1,0.1-0.5,0.1-1,0.2c-0.5,0.1-1.1,0.1-1.5,0.1c-0.5,0-0.7-0.1-0.8-0.4
			c-0.3-1.1-0.8-3.1-1.4-6.2s-1.2-5.9-1.9-8.4c-0.6-2.5-1.2-4.2-1.8-5c0.9-0.4,1.7-0.7,2.2-0.7c0.5,0,0.9,0.1,1.2,0.2
			s0.5,0.4,0.7,0.8c0.2,0.4,0.4,1,0.6,1.6c0.3,1,0.6,2.6,1,4.6c0.4,2,0.6,3.1,0.6,3.3c0.6,3.1,1,5.1,1.2,6.3
			c1.1-2.4,2.3-5.6,3.7-9.5c1.4-4,2-6.5,2-7.7c1.9,0.3,2.9,1,2.9,1.9c0,0.7-0.5,2.2-1.5,4.5c-1,2.3-2.1,4.9-3.5,7.8
			C83.7,89.9,82.8,92.1,82.2,93.5z"/>
		<path class="st1" d="M109.5,84.9l-2.5,0c-0.8,0-1.3,0-1.7,0c-0.3,2.3-0.4,4.2-0.4,5.9c4,0,7-0.3,9-1c-0.2,1.3-0.5,2.3-1.2,3
			c-0.6,0.7-1.4,1.1-2.3,1.1c-0.3,0-1-0.1-2.3-0.2c-1.3-0.1-2.6-0.2-4-0.2c-1.4,0-2.8,0.1-4.1,0.4c0.2-0.8,0.6-1.5,1.2-2v-0.1
			c0-0.9,0.2-3,0.7-6.3c-0.4,0.2-0.8,0.3-1.1,0.4c0-0.4-0.1-0.7-0.1-0.8c0-1.1,0.5-1.9,1.5-2.2c0.3-2.3,0.5-4.3,0.6-6.1
			c-0.6,0-1-0.2-1.2-0.4c-0.2-0.3-0.3-0.8-0.3-1.5c0.1-0.8,0.1-1.3,0.2-1.5c1.9,0.3,4,0.4,6.4,0.4s4.6-0.2,6.7-0.6
			c-0.2,1.8-1.3,2.9-3.3,3.2c-1.1,0.2-2.9,0.4-5.1,0.4c0,0.2-0.3,2.2-0.7,6c1,0,1.7,0.1,2.1,0.1c1.6,0,2.8-0.3,3.5-0.8
			c0,0.3,0.1,0.6,0.1,0.8C111.3,84.1,110.7,84.9,109.5,84.9z"/>
		<path class="st1" d="M128.2,92.5c-0.3-0.4-1.3-2.4-3.1-5.7c-1.8-3.4-3-5.7-3.7-7c-0.1,0.6-0.2,1.7-0.5,3.3
			c-0.5,3.3-0.7,6.1-0.7,8.4c0,0.5,0,1.2,0.1,2.1c-1.2,0-2-0.1-2.4-0.4c-0.4-0.3-0.6-0.7-0.6-1.2c0-0.2,0.3-2.5,0.8-6.9
			c0.6-4.4,0.9-7.6,0.9-9.3l-0.2-0.3c-0.4-0.6-1-1.2-1.7-1.6c-0.2-0.1-0.3-0.2-0.3-0.2c0.8-0.5,1.6-0.7,2.4-0.7
			c1.5,0,2.6,0.5,3.3,1.5c0.7,1,2,3.4,3.9,7.3c0.2,0.4,0.5,1.1,0.9,1.9c0.4,0.9,0.8,1.6,1,2.1c0.6,1.3,1.2,2.5,1.9,3.6
			c0.1-0.7,0.3-2.7,0.7-6.2s0.6-6.2,0.6-8.2c0-0.5,0-1.2-0.1-2.1c1.2,0,2,0.1,2.4,0.4c0.4,0.3,0.6,0.7,0.6,1.2
			c0,0.2-0.3,2.6-0.8,7.2c-0.6,4.6-0.8,7.8-0.8,9.5c0,0.6,0,1.1,0.1,1.4c0.1,0.1,0.4,0.3,0.7,0.4c-1.1,0.7-2,1-3,1
			C129.6,94,128.8,93.5,128.2,92.5z"/>
		<path class="st1" d="M146.9,84.9l-2.5,0c-0.8,0-1.3,0-1.7,0c-0.3,2.3-0.4,4.2-0.4,5.9c4,0,7-0.3,9-1c-0.2,1.3-0.5,2.3-1.2,3
			c-0.6,0.7-1.4,1.1-2.3,1.1c-0.3,0-1-0.1-2.3-0.2c-1.3-0.1-2.6-0.2-4-0.2c-1.4,0-2.8,0.1-4.1,0.4c0.2-0.8,0.6-1.5,1.2-2v-0.1
			c0-0.9,0.2-3,0.7-6.3c-0.4,0.2-0.8,0.3-1.1,0.4c0-0.4-0.1-0.7-0.1-0.8c0-1.1,0.5-1.9,1.5-2.2c0.3-2.3,0.5-4.3,0.6-6.1
			c-0.6,0-1-0.2-1.2-0.4c-0.2-0.3-0.3-0.8-0.3-1.5c0.1-0.8,0.1-1.3,0.2-1.5c1.9,0.3,4,0.4,6.4,0.4s4.6-0.2,6.7-0.6
			c-0.2,1.8-1.3,2.9-3.3,3.2c-1.1,0.2-2.9,0.4-5.1,0.4c0,0.2-0.3,2.2-0.7,6c1,0,1.7,0.1,2.1,0.1c1.6,0,2.8-0.3,3.5-0.8
			c0,0.3,0.1,0.6,0.1,0.8C148.6,84.1,148,84.9,146.9,84.9z"/>
		<path class="st1" d="M155.1,93.4c-0.4-0.3-0.6-0.9-0.6-1.7s0.3-3.2,0.9-7.3c0.6-4.1,0.9-7,0.9-8.7s-0.1-2.9-0.4-3.4
			c1.7,0.1,2.9,0.8,3.4,2c1.2-0.7,2.6-1,4.2-1s2.9,0.5,3.9,1.4s1.5,1.9,1.5,3.1c0,1.2-0.4,2.4-1.2,3.5c-0.8,1.2-2,2.1-3.6,2.7l0.3,1
			c0.6,1.9,1.5,3.8,2.7,5.7c1.2,1.9,2.1,3.2,2.9,3.8c-0.6,0.2-1.3,0.3-1.9,0.3c-0.6,0-1.3-0.2-1.9-0.6c-0.6-0.4-1.2-0.8-1.6-1.3
			c-0.4-0.5-0.9-1.2-1.4-2.3c-0.5-1-0.9-1.9-1.1-2.4s-0.5-1.2-0.7-1.9c-0.3-0.7-0.4-1.1-0.4-1.1c0-0.1,0-0.1-0.1-0.2
			s-0.1-0.1-0.1-0.2c-0.4,0-0.7,0-1.1,0l-0.1-1.2c2.2-0.1,3.8-0.9,4.9-2.3c0.6-0.8,0.9-1.7,0.9-2.5c0-0.3,0-0.6-0.1-1
			c-0.3-1.1-1-1.8-2.1-2.1c-0.3-0.1-0.7-0.1-1.3-0.1s-1.3,0.2-2.2,0.5c0,0.7-0.2,2.8-0.7,6.4c-0.5,3.6-0.7,6.6-0.7,9
			c0,1.1,0.1,1.9,0.2,2.5c-0.5,0-0.9,0.1-1.1,0.1C156.2,93.9,155.5,93.8,155.1,93.4z"/>
		<path class="st1" d="M177.6,100.1c2.9,0,4.5-3.4,4.9-10.1c-0.6,0.9-1.4,1.6-2.3,2.1s-1.8,0.7-2.8,0.7c-1.6,0-3.1-0.7-4.2-2
			c-1.2-1.3-1.8-3.2-1.8-5.6c0-3.3,0.8-6.1,2.5-8.5c0.8-1.2,1.9-2.1,3.2-2.8c1.3-0.7,2.8-1,4.5-1c1.7,0,2.9,0.4,3.8,1.3
			c0.9,0.9,1.3,1.9,1.3,3.2c0,1.3-0.4,2.3-1.2,3c-0.8,0.7-1.7,1.1-2.8,1.1c-0.7,0-1.4-0.2-2-0.5c-0.6-0.3-1.1-0.8-1.5-1.5
			c0.5,0.1,0.9,0.2,1.3,0.2c0.9,0,1.7-0.3,2.2-0.8s0.8-1.1,0.8-1.8c0-0.7-0.2-1.2-0.7-1.7s-1.1-0.7-1.9-0.7c-1.1,0-2.1,0.6-2.9,1.7
			s-1.5,2.4-2,4c-0.4,1.6-0.7,3.2-0.7,4.9c0,1.7,0.3,3,1,3.9c0.7,1,1.5,1.4,2.4,1.4c0.9,0,1.8-0.5,2.5-1.4s1-2.2,1-3.8
			c0-0.4,0-0.8-0.1-1.2v-0.1c0.4,0,0.8-0.1,1.2-0.1c1,0,1.7,0.2,2.1,0.5c0.4,0.3,0.6,0.9,0.6,1.7c0,5.2-0.9,9.3-2.8,12.2
			c-0.7,1-1.5,1.8-2.5,2.5c-1,0.6-2.2,1-3.5,1c-1.8,0-3.1-0.5-4-1.4s-1.4-2-1.4-3.2s0.3-2.1,1-2.8c0.6-0.7,1.4-1.1,2.4-1.1
			c0.5,0,1.1,0.1,1.7,0.4c-0.9,1.1-1.4,2.4-1.4,3.6c0,0.7,0.2,1.3,0.5,1.8S176.8,100.1,177.6,100.1z"/>
		<path class="st1" d="M195.8,83.1l0.2,1c1.6-2.5,2.9-4.8,3.8-6.9c1-2.2,1.6-3.9,1.7-5.1c1.3,0.7,1.9,1.7,1.9,2.9
			c0,1.3-2.2,5-6.5,11.3c-0.3,2.3-0.4,4.1-0.4,5.3c0,1.3,0.1,2.2,0.4,2.7c-1.5-0.4-2.5-0.9-3-1.5c-0.5-0.6-0.8-1.4-0.8-2.4
			s0.1-2.3,0.4-4.1c-1.8-6.5-3.4-10.8-4.8-12.8c0.7-0.4,1.4-0.7,2.2-0.7c0.4,0,0.8,0,1,0.1s0.6,0.3,0.8,0.5c0.3,0.3,0.5,0.6,0.7,1.1
			s0.4,1.1,0.7,1.9C194.6,77.7,195.1,80,195.8,83.1z"/>
	</g>
</g>
</svg>
