<svg width="207" height="107" viewBox="0 0 207 107" fill="none" xmlns="http://www.w3.org/2000/svg">
<g clip-path="url(#clip0)">
<path d="M76.0319 18.5471C75.0031 18.5499 74.0052 18.8967 73.1993 19.5318C72.8321 19.837 72.5454 20.2263 72.3638 20.6662C72.1821 21.1061 72.1111 21.5833 72.1567 22.0565C72.1863 23.085 72.5664 24.073 73.2349 24.8591C73.9291 25.6771 74.7685 26.3617 75.7115 26.8789C76.6846 27.4242 77.7475 28.0134 78.9002 28.6462C80.0529 29.2791 81.1158 29.8783 82.0889 30.4439C83.046 30.9961 83.8883 31.7245 84.5706 32.59C85.2223 33.3799 85.6004 34.3573 85.6488 35.3773C85.7268 37.3467 84.83 39.0501 82.9585 40.4875C81.087 41.925 78.5883 42.7043 75.4623 42.8255C72.3364 42.9467 69.8394 42.4821 67.9713 41.4318C66.1032 40.3815 65.142 39.1477 65.0878 37.7304C65.0327 37.0991 65.1299 36.4639 65.3714 35.8773C65.6128 35.2907 65.9915 34.7697 66.4761 34.3573C67.5702 33.481 68.9355 33.0065 70.3412 33.0141C70.7749 32.9948 71.2095 33.0202 71.638 33.0899C70.9217 34.0024 70.5493 35.1349 70.5853 36.2913C70.6007 36.8381 70.7303 37.3759 70.9657 37.8704C71.2012 38.365 71.5375 38.8056 71.9533 39.1645C72.4123 39.5627 72.9475 39.865 73.5268 40.0533C74.1061 40.2415 74.7177 40.3119 75.325 40.2603C76.5487 40.2543 77.7438 39.8927 78.7629 39.2201C79.1733 38.9748 79.5109 38.626 79.7414 38.2092C79.9718 37.7923 80.0869 37.3222 80.075 36.8468C80.0468 35.9275 79.673 35.052 79.0273 34.3927C78.3274 33.6691 77.5067 33.0711 76.6015 32.6253C75.6454 32.1439 74.5978 31.5918 73.4586 30.9691C72.3195 30.3463 71.2684 29.7134 70.3056 29.0704C69.3248 28.413 68.4891 27.5643 67.8492 26.5759C67.1776 25.5611 66.8026 24.3812 66.766 23.1675C66.7103 22.2106 66.9049 21.2557 67.3308 20.3957C67.7568 19.5356 68.3997 18.7996 69.1969 18.2593C70.8921 16.9969 73.223 16.3085 76.1896 16.194C79.1562 16.0795 81.4243 16.5474 82.9941 17.5978C84.5706 18.6481 85.3826 19.8028 85.4301 21.0618C85.4632 21.6635 85.3623 22.265 85.1347 22.8236C84.907 23.3821 84.5582 23.884 84.1129 24.2935C83.0551 25.2393 81.6763 25.7534 80.253 25.7327C79.7062 25.7541 79.1586 25.7322 78.6154 25.667C79.8122 24.5191 80.3869 23.3408 80.3394 22.1323C80.3526 21.6055 80.2396 21.0832 80.0097 20.6082C79.7798 20.1333 79.4397 19.7193 79.0172 19.4005C78.1516 18.7815 77.0965 18.4798 76.0319 18.5471V18.5471Z" fill="white"/>
<path d="M88.7815 42.058C88.435 41.8212 88.1557 41.4999 87.9704 41.1249C87.7852 40.75 87.7002 40.334 87.7237 39.917C87.683 38.9071 87.9966 35.8033 88.6645 30.6056C89.3325 25.4079 89.6223 21.7048 89.5342 19.4965C89.446 17.2949 89.207 15.8642 88.8171 15.2043C91.4718 15.275 93.245 16.0762 94.1366 17.6079C96.1701 16.6085 98.3983 16.0606 100.667 16.0022C103.067 15.9079 104.986 16.4583 106.423 17.6534C107.113 18.2 107.673 18.8904 108.064 19.6757C108.455 20.4611 108.668 21.3221 108.687 22.198C108.775 24.4569 107.868 26.5356 105.966 28.4342C104.915 29.4184 103.68 30.1872 102.33 30.6964C100.731 31.3188 99.0363 31.6606 97.3202 31.7064C96.5792 31.7369 95.837 31.7217 95.0978 31.6609L94.9249 30.2975H95.2351C98.1678 30.1831 100.468 29.1732 102.136 27.2678C103.196 26.1352 103.78 24.643 103.769 23.0968C103.687 20.9928 102.608 19.6463 100.529 19.0572C98.7696 18.5825 96.8269 18.766 94.7011 19.6076V19.6732C94.735 20.498 94.4706 23.2096 93.9078 27.8081C93.3894 31.6147 93.1684 35.4554 93.2467 39.2959C93.2655 40.3653 93.3864 41.4304 93.6077 42.4771C92.7771 42.5512 92.2329 42.5933 91.9753 42.6034C90.5106 42.6471 89.446 42.4653 88.7815 42.058Z" fill="white"/>
<path d="M121.985 30.4136L118.385 30.5197C117.283 30.5634 116.445 30.6055 115.872 30.6459C115.624 33.0277 115.517 35.422 115.552 37.8163C121.424 37.5908 125.771 37.0252 128.591 36.1196C128.516 37.4795 127.978 38.7738 127.066 39.7907C126.633 40.2333 126.117 40.5863 125.546 40.829C124.975 41.0717 124.361 41.1993 123.74 41.2046C123.34 41.2046 122.218 41.1591 120.373 41.0682C118.529 40.9773 116.583 40.9639 114.535 41.0278C112.522 41.1027 110.52 41.3596 108.554 41.7954C108.799 40.7891 109.405 39.9059 110.258 39.311V39.1847C110.214 38.057 110.463 35.4733 111.006 31.4336C110.388 31.6457 109.858 31.8342 109.414 31.9992C109.346 31.5414 109.307 31.2047 109.297 30.9893C109.243 29.5889 109.944 28.6715 111.402 28.2372C111.741 25.46 111.943 22.9621 112.007 20.7437C111.082 20.7437 110.487 20.5888 110.222 20.2791C109.958 19.9694 109.809 19.3584 109.775 18.4461C109.77 17.8195 109.847 17.1948 110.004 16.5879C113.098 16.7967 116.202 16.8338 119.3 16.699C122.583 16.5802 125.852 16.202 129.075 15.5679C128.81 17.7762 127.262 19.1548 124.431 19.7035C121.971 20.1326 119.486 20.4075 116.991 20.5266C116.991 20.7588 116.723 23.1961 116.188 27.8383C117.69 27.8383 118.727 27.8198 119.3 27.7828C121.673 27.6919 123.347 27.2812 124.32 26.5507C124.374 26.8616 124.411 27.1751 124.431 27.4899C124.499 29.3751 123.684 30.3497 121.985 30.4136Z" fill="white"/>
<path d="M96.9943 0.217163C74.3533 0.217163 55.9943 12.528 55.9943 27.7172C55.9943 42.9063 74.3533 55.2273 96.9943 55.2273C119.635 55.2273 137.994 42.9164 137.994 27.7273C137.994 12.5381 119.64 0.217163 96.9943 0.217163ZM96.9943 53.7427C76.8452 53.7427 60.5154 42.7901 60.5154 29.2724C60.5154 15.7547 76.8503 4.80219 96.9943 4.80219C117.138 4.80219 133.473 15.7547 133.473 29.2724C133.473 42.7901 117.143 53.7124 96.9943 53.7124V53.7427Z" fill="white"/>
</g>
<path d="M21.2636 74.1178C21.518 74.2216 21.7366 74.4004 21.8919 74.6317C22.0472 74.8629 22.1322 75.1361 22.136 75.4168C22.136 76.3538 21.6236 76.8365 20.5919 76.8365C19.1389 76.9426 17.7158 77.3128 16.3891 77.9297C15.7521 78.2562 15.122 78.4975 14.5265 78.7388C14.7748 79.2852 14.898 79.8825 14.8866 80.4851C14.8866 81.1382 14.8104 81.9048 14.7273 82.7992C16.4722 82.3946 18.3347 81.9048 20.315 81.3795C21.1605 81.0777 22.0399 80.8869 22.9323 80.8116C23.6492 80.8342 24.3549 81.0006 25.0095 81.3014C25.2823 81.427 25.5177 81.6246 25.6917 81.8741C25.8657 82.1235 25.9719 82.4158 25.9996 82.7211C26.034 82.9317 25.9866 83.1477 25.8675 83.3228C25.7485 83.498 25.5672 83.6184 25.3626 83.6581C21.6417 84.0902 17.9442 84.7132 14.2842 85.525L14.0488 86.8666C17.0024 91.1665 20.844 94.7462 25.3003 97.3511C28.8661 99.3032 31.1649 100.844 32.2243 101.979C32.7594 102.407 33.2165 102.929 33.5745 103.52C33.5745 104.01 32.9374 104.293 31.7119 104.293C28.2245 104.236 24.8637 102.944 22.1983 100.638C19.4287 98.5082 16.5345 94.8666 13.4395 89.7486C12.3316 94.3768 10.3514 97.7557 7.53329 99.8214C5.78844 101.123 4.20285 101.773 2.7765 101.773C2.34029 101.773 2.13948 101.61 2.13948 101.284C3.75338 100.466 5.21554 99.366 6.46006 98.0326C7.84486 96.5277 9.1535 93.887 10.386 90.1106C10.7606 88.8563 11.0658 87.5813 11.2999 86.2917C10.9053 86.3697 10.5452 86.4975 10.2267 86.5756C6.34235 87.7114 3.76662 88.2792 2.45798 88.2792C2.10366 88.2826 1.75365 88.1994 1.43696 88.0365C1.12028 87.8735 0.846052 87.6356 0.636987 87.3423C0.251893 86.955 0.0242625 86.4324 -3.05176e-05 85.8799C-3.05176e-05 85.6741 0.276936 85.5534 0.872401 85.4754C4.50564 85.0808 8.10781 84.4286 11.6531 83.5233C11.7318 82.7261 11.7711 81.9253 11.7708 81.124C11.7727 80.7421 11.7332 80.3611 11.6531 79.9882C10.7045 80.3928 9.86668 80.698 9.11889 80.9607V80.7974C9.81129 80.3076 10.5452 79.7823 11.4176 79.25C11.3415 79.0441 11.2584 78.8454 11.1822 78.6821C9.95724 79.0654 8.69344 79.3036 7.41557 79.3919C6.58469 79.4119 5.76404 79.2009 5.04064 78.7814C4.74503 78.6492 4.48351 78.4483 4.2768 78.1945C4.07009 77.9406 3.92386 77.6409 3.84971 77.3192C3.84971 76.9926 3.92587 76.8294 4.16821 76.8294C4.72993 76.9369 5.30009 76.9916 5.87153 76.9926C7.33942 76.9926 9.55509 76.4248 12.567 75.2464C14.6011 74.2979 16.7945 73.7604 19.0271 73.6635C19.7925 73.6823 20.549 73.836 21.2636 74.1178V74.1178Z" fill="white"/>
<path d="M37.5489 93.5392C37.7828 94.3434 38.1008 95.1193 38.4974 95.8534C38.5714 95.8869 38.6522 95.9015 38.7329 95.8959C39.5905 95.8461 40.4346 95.6544 41.2324 95.3281C42.0198 95.0217 42.8493 94.8444 43.6904 94.8028C43.8497 94.8028 43.9674 94.8453 44.0851 94.8453C44.1267 94.0716 44.1613 93.2624 44.1613 92.4106C44.0851 92.0059 43.6835 91.8001 42.8942 91.8001C42.2363 91.8902 41.5876 92.0399 40.9555 92.2473C40.5893 92.4112 40.2023 92.5211 39.8061 92.5739C38.8829 92.5739 38.3682 92.3703 38.262 91.9634C38.3142 91.8771 38.3839 91.8033 38.4663 91.7469C38.5487 91.6906 38.642 91.6531 38.7398 91.6369C39.1804 91.4362 39.6042 91.1988 40.0069 90.927C40.9434 90.2678 41.9733 89.7603 43.0604 89.4221C46.1485 89.4221 47.7341 90.4372 47.8587 92.4319C47.8277 94.1658 47.6423 95.8931 47.3048 97.5925C46.983 99.0419 46.4632 100.438 45.7607 101.738C45.283 102.512 44.8121 102.916 44.3344 102.916C43.9636 102.931 43.5993 102.814 43.3029 102.585C43.0065 102.356 42.7961 102.029 42.7072 101.66C42.0706 101.822 41.4223 101.931 40.7685 101.986C40.4982 101.979 40.2311 101.924 39.9792 101.823C39.9157 101.936 39.83 102.034 39.7274 102.111C39.6249 102.188 39.5078 102.242 39.3837 102.27C38.6913 102.27 38.0751 101.745 37.5627 100.766C36.8601 98.9859 36.5231 97.0769 36.5726 95.1577C36.5726 93.7735 36.7734 93.0849 37.2096 93.0849C37.3708 93.1913 37.4908 93.352 37.5489 93.5392V93.5392ZM41.3155 99.7575C41.9071 99.4519 42.5574 99.2847 43.2196 99.2677C43.4749 98.5395 43.674 97.7919 43.8151 97.0317C43.6558 97.1098 43.4966 97.1523 43.4204 97.1949C42.548 97.6398 41.7563 98.0066 41.0455 98.2952V98.1319C41.3998 97.7239 41.7841 97.3442 42.1949 96.9962C41.4235 97.2498 40.6269 97.4141 39.8199 97.486C39.6595 97.4958 39.4985 97.4814 39.3422 97.4434C39.3368 97.4754 39.3412 97.5083 39.3548 97.5375C39.3685 97.5668 39.3907 97.5909 39.4183 97.6067C39.923 98.381 40.2235 99.276 40.2908 100.205C40.6449 100.088 40.9861 99.9334 41.3086 99.7433L41.3155 99.7575ZM42.6657 75.8285C43.2981 76.2355 43.7735 77.0897 44.092 78.391C44.3212 78.4255 44.5529 78.4398 44.7844 78.4336C45.5171 78.3463 46.2243 78.1046 46.8616 77.7238C47.4879 77.3186 48.2007 77.075 48.9388 77.0139C49.5755 77.0293 50.205 77.1541 50.8014 77.3831C50.8014 77.4257 50.8429 77.4257 50.8776 77.4257L51.0783 74.6643C51.0836 74.5453 51.0625 74.4265 51.0165 74.3171C50.9705 74.2076 50.9009 74.1102 50.8129 74.0323C50.7249 73.9544 50.6209 73.898 50.5085 73.8673C50.3962 73.8366 50.2785 73.8325 50.1644 73.8551L47.1524 73.777C46.46 73.777 46.1208 73.5712 46.1208 73.2517C46.1208 73.0459 46.6747 72.7265 47.8656 72.2367C49.1416 71.7341 50.5012 71.493 51.8677 71.5268C54.2842 71.5694 55.5166 72.6271 55.5928 74.6928C55.5505 75.2379 55.3584 75.7597 55.0389 76.1976C54.7818 77.0813 54.6353 77.9948 54.6027 78.9163C54.4434 82.21 54.0903 84.2402 53.5294 85.0494C53.328 85.3597 53.0582 85.6171 52.7419 85.8008C52.4256 85.9846 52.0716 86.0894 51.7084 86.1071C51.4834 86.0878 51.2722 85.9873 51.1125 85.8236C50.9528 85.6599 50.8549 85.4435 50.836 85.2127C50.8 85.2349 50.7599 85.2494 50.7183 85.2553C49.8279 85.5316 48.9109 85.7077 47.9833 85.7806C47.3954 85.7813 46.8193 85.6115 46.3216 85.2908C45.9746 85.1412 45.6936 84.8657 45.5322 84.517C45.5322 84.3538 45.6915 84.2757 46.01 84.1905C46.7707 84.0244 47.5049 83.7496 48.191 83.3742C48.8846 82.9495 49.6824 82.7377 50.4898 82.7637V82.4372L50.7252 79.5126C50.6033 79.5762 50.4671 79.6056 50.3306 79.5978C49.8595 79.6422 49.4151 79.8413 49.0635 80.1657C48.3895 80.7727 47.6745 81.3301 46.9239 81.8338V81.6705C47.2163 81.0062 47.5614 80.3676 47.9556 79.761C47.3848 80.0641 46.7698 80.2703 46.1346 80.3715C45.5474 80.3854 44.9648 80.2616 44.4313 80.0095C44.5906 81.0672 44.7083 81.9971 44.7498 82.7708C44.7498 83.8285 44.5906 84.3538 44.3136 84.3538C44.0745 84.3213 43.851 84.2138 43.6738 84.046C43.4965 83.8783 43.3742 83.6585 43.3235 83.4168C43.005 82.8489 42.728 81.3866 42.4926 79.0299C42.3292 78.2853 42.0634 77.5683 41.7033 76.9004C41.5048 76.6127 41.3809 76.2781 41.3432 75.9279C41.336 75.8833 41.3393 75.8377 41.3527 75.7947C41.3662 75.7517 41.3895 75.7126 41.4206 75.6807C41.4517 75.6488 41.4899 75.6249 41.5318 75.6111C41.5737 75.5973 41.6183 75.594 41.6617 75.6013C42.0077 75.5762 42.3535 75.6525 42.6588 75.8214L42.6657 75.8285ZM52.2139 93.2198C52.2432 93.4153 52.2967 93.6061 52.3731 93.7877C52.5697 93.8222 52.7692 93.8365 52.9686 93.8303C53.6457 93.7368 54.2952 93.4947 54.8727 93.1204C55.4071 92.7215 56.0358 92.4764 56.6937 92.4106C57.275 92.4242 57.8502 92.5345 58.397 92.7371V91.793C58.397 90.5366 57.9608 89.8835 57.1715 89.8835C56.5391 89.9061 55.9127 90.016 55.3089 90.21C54.6165 90.1675 54.2357 89.9687 54.2357 89.557C54.2693 89.3315 54.3555 89.1177 54.4869 88.9335C54.6183 88.7494 54.791 88.6005 54.9904 88.4993C56.9707 87.2429 58.2793 86.5898 58.8748 86.5472C59.7997 86.6005 60.6673 87.0236 61.2912 87.7256C61.796 88.3181 62.0891 89.0691 62.1221 89.8551C62.1221 96.1941 62.0044 99.9705 61.8036 101.106C61.409 102.242 60.7304 102.852 59.7818 102.852C59.3456 102.852 58.9925 102.49 58.7501 101.759C58.5892 101.36 58.4956 100.935 58.4732 100.503C57.7793 100.789 57.0398 100.94 56.2921 100.95C55.0253 101.04 53.7571 100.796 52.6086 100.24C52.5474 100.382 52.4514 100.505 52.33 100.597C52.2086 100.689 52.066 100.747 51.9162 100.766C51.2792 100.766 50.9676 100.276 50.9676 99.3458V93.9439C50.9676 93.5818 50.8499 92.8507 50.6906 91.7504C50.6906 91.6723 50.7668 91.5872 50.9676 91.5872C51.5517 91.9674 51.9915 92.5409 52.2139 93.2127V93.2198ZM55.5443 98.7069C56.3393 98.3327 57.2038 98.139 58.0785 98.1391C58.1547 98.1391 58.2793 98.1816 58.397 98.1816V94.9164C58.2938 94.9484 58.1862 94.9627 58.0785 94.9589C57.5691 95.0155 57.0802 95.1955 56.6522 95.4842C55.8728 96.0396 55.0663 96.5537 54.2357 97.0246V96.9039C54.5035 96.418 54.8091 95.9551 55.1497 95.5197C54.9006 95.6486 54.6308 95.7304 54.3534 95.7611C53.7531 95.7711 53.1578 95.6476 52.6086 95.399C52.7466 96.6813 52.8137 97.9706 52.8093 99.2606C53.7474 99.2766 54.6778 99.0853 55.5374 98.6999L55.5443 98.7069Z" fill="white"/>
<path d="M84.1889 70.5401C84.7798 71.5884 85.068 72.7873 85.0198 73.9971C85.0198 74.3662 84.9783 74.7069 84.9783 75.1329C86.6641 74.5784 88.3854 74.1444 90.1297 73.8338C91.1614 73.8338 91.6738 74.281 91.6738 75.0903C91.6738 76.1834 90.289 77.7735 87.5886 79.8036C86.3977 80.698 85.2898 81.5499 84.2582 82.281C84.0843 82.9464 83.8035 83.5773 83.4273 84.1479C83.3806 84.1963 83.341 84.2513 83.3096 84.3112L83.545 84.1905C84.0821 83.8218 84.6921 83.5793 85.3314 83.4807C85.9455 83.5061 86.5504 83.6431 87.1178 83.8853C87.358 83.9878 87.5662 84.1558 87.72 84.371C87.8738 84.5862 87.9672 84.8405 87.9902 85.1062C88.0246 85.3168 87.9772 85.5328 87.8581 85.7079C87.7391 85.8831 87.5578 86.0035 87.3532 86.0432C86.7162 86.2065 86.1276 86.3272 85.5668 86.4479C85.9672 87.0795 86.1612 87.8253 86.1207 88.5774C86.0919 89.1129 85.9576 89.6369 85.726 90.1178C85.1584 91.4029 84.7468 92.7546 84.5005 94.1426C84.2545 95.5654 84.1225 97.0065 84.1058 98.4514C84.1058 100.034 86.0445 100.808 89.9289 100.808C92.0987 100.898 94.2649 100.553 96.3059 99.793C97.85 99.1399 98.6462 98.3733 98.6462 97.4789L98.487 95.8959C98.487 95.6901 98.5285 95.5694 98.6462 95.5694C98.8835 95.6316 99.0933 95.7742 99.2417 95.974C100.509 97.3582 101.146 98.6572 101.146 99.9563C101.146 101.255 100.273 102.192 98.6116 102.923C97.1853 103.633 94.928 103.981 91.9161 103.981C87.914 103.981 85.3383 103.612 84.1474 102.966C82.6379 102.15 81.9248 100.836 81.9248 98.9057C82.0118 97.1426 82.2434 95.3902 82.6172 93.667C83.0949 91.1896 83.3719 89.7699 83.3719 89.4079C83.3284 89.0766 83.1912 88.7657 82.9772 88.5135C81.2854 91.7577 79.0142 94.6472 76.2817 97.0317C74.017 99.1648 71.3046 100.736 68.3537 101.624C68.1183 101.624 68.0352 101.539 68.0352 101.461C71.4329 99.1385 74.4559 96.286 76.9949 93.0069C78.2654 91.4522 79.405 89.79 80.4015 88.0379C79.2105 88.5277 78.0612 89.0104 77.0295 89.5428C74.3776 90.8844 72.6327 91.5729 71.7603 91.6155C71.4362 91.6272 71.1149 91.5506 70.829 91.3934C70.5432 91.2363 70.3031 91.0043 70.1332 90.7211C69.7896 90.3619 69.5916 89.8825 69.5793 89.3795C69.6028 89.2373 69.6765 89.1089 69.7862 89.0186C69.896 88.9283 70.0342 88.8825 70.1747 88.8897C70.6717 88.843 71.1632 88.748 71.6426 88.6058C75.1024 86.6004 78.4016 84.317 81.5093 81.777C81.3916 80.0734 81.3501 77.4682 81.3501 73.9687C81.2537 72.5333 81.0406 71.1087 80.7131 69.7096C80.7131 69.3831 81.0293 69.2198 81.6616 69.2198C82.1581 69.1983 82.6516 69.3085 83.0943 69.5398C83.5371 69.7711 83.9141 70.1157 84.1889 70.5401ZM76.8772 80.0876C76.9403 80.1836 77.0221 80.2654 77.1174 80.3277C77.2127 80.3899 77.3195 80.4314 77.4311 80.4496C77.5903 80.4496 78.0266 79.9598 78.6566 78.9093C78.6978 78.9125 78.7365 78.9307 78.7657 78.9607C78.7949 78.9906 78.8127 79.0303 78.8159 79.0725C78.7397 80.6981 78.4558 81.8338 77.9019 82.4869C77.7839 82.7268 77.6106 82.9337 77.3971 83.0895C77.1835 83.2453 76.9361 83.3455 76.6764 83.3813C76.4253 83.3748 76.1794 83.3071 75.959 83.1836C75.7387 83.0601 75.5502 82.8846 75.4093 82.6714C74.836 82.079 74.4727 81.3068 74.3776 80.478C74.2645 79.8029 74.0297 79.1554 73.6852 78.5685C73.6821 78.5266 73.6886 78.4845 73.7042 78.4456C73.7197 78.4067 73.744 78.3721 73.7749 78.3445C73.8058 78.317 73.8426 78.2972 73.8824 78.2868C73.9221 78.2763 73.9636 78.2756 74.0037 78.2846C74.5992 78.2988 75.5478 78.9092 76.8772 80.0876ZM82.541 84.6377C82.3765 84.6466 82.2137 84.6001 82.0775 84.5052C81.9412 84.4104 81.8389 84.2724 81.7863 84.1124C81.7447 84.1124 81.7447 84.0698 81.7447 84.0343C80.1591 85.092 78.7743 85.9865 77.5903 86.675C79.1136 86.1 80.7407 85.454 82.5618 84.6377H82.541ZM87.9694 75.2535C87.9662 75.2113 87.9484 75.1716 87.9192 75.1417C87.89 75.1118 87.8513 75.0935 87.8102 75.0903C86.9128 75.5686 85.9259 75.8444 84.9159 75.8995C84.8744 76.7939 84.8398 77.7309 84.7567 78.7389C86.9239 76.7158 87.9971 75.6084 87.9971 75.2535H87.9694Z" fill="white"/>
<path d="M103.763 78.2632C104.132 78.8299 104.339 79.4916 104.359 80.1727C104.344 81.7391 103.98 83.2813 103.292 84.6803C102.932 85.4966 102.6 85.9012 102.184 85.9012C101.973 85.8639 101.773 85.7813 101.595 85.659C101.417 85.5367 101.266 85.3774 101.153 85.1914C101.003 85.0678 100.881 84.9138 100.793 84.739C100.704 84.5643 100.653 84.3727 100.64 84.1763C100.682 83.814 100.806 83.4666 101 83.1612C101.758 81.4897 102.316 79.7308 102.662 77.9225C102.662 77.6812 102.704 77.5179 102.821 77.5179C103.201 77.6643 103.529 77.9239 103.763 78.2632V78.2632ZM108.915 89.7202C109.844 90.1073 110.589 90.851 110.992 91.793C111.069 92.017 111.162 92.2352 111.269 92.446C111.823 92.2827 112.494 91.9988 113.291 91.6723C113.394 91.6256 113.501 91.5853 113.609 91.5516V91.4735C113.609 90.8205 113.685 90.501 113.928 90.501C114.163 90.5035 114.395 90.5595 114.607 90.6651C114.819 90.7707 115.006 90.9232 115.153 91.1115C115.664 91.028 116.18 90.9876 116.697 90.9908C117.334 90.9908 117.646 91.2322 117.646 91.6439C117.646 92.2544 117.092 92.7016 116.019 93.0281C116.064 93.3503 116.089 93.6751 116.095 94.0006V94.8524C116.647 94.6277 117.217 94.452 117.798 94.3271C118.033 94.3271 118.234 94.3697 118.394 94.3697C118.628 93.7462 118.92 93.1471 119.266 92.5809C120.138 90.6714 120.575 89.2872 120.575 88.478C120.575 87.9527 120.415 87.6687 120.097 87.6687C118.899 87.8231 117.731 88.1654 116.635 88.6838C114.26 89.9048 112.868 90.5152 112.48 90.5152C111.449 90.4301 110.936 90.1887 110.936 89.7415C110.936 89.415 111.885 88.8045 113.872 87.9101C117.597 86.1639 119.896 85.2694 120.845 85.2694C121.537 85.2694 122.389 85.7592 123.462 86.6891C124.411 87.5836 124.888 88.194 124.888 88.5986C124.888 89.2896 124.452 90.1012 123.58 91.0334C122.39 92.6103 121.367 94.3116 120.526 96.1089C120.414 96.4453 120.208 96.7405 119.933 96.9577C119.659 97.1748 119.328 97.3042 118.982 97.3298C118.865 97.2946 118.758 97.232 118.669 97.147C118.58 97.062 118.512 96.9568 118.47 96.84C118.428 96.84 118.428 96.7974 118.428 96.7548C118.376 96.8167 118.305 96.8592 118.227 96.8755C117.438 97.202 116.6 97.4859 115.811 97.7273V97.8906C115.735 98.8276 115.735 99.6794 115.735 100.489C115.735 101.056 116.088 101.426 116.843 101.667C117.597 101.908 119.1 102.114 121.482 102.114C123.663 102.114 125.165 101.873 125.961 101.404C126.654 101.12 127.152 100.432 127.464 99.2748C127.464 99.0335 127.54 98.9128 127.665 98.9128C128.178 99.0517 128.645 99.3315 129.015 99.722C129.319 99.9868 129.553 100.326 129.695 100.708C129.837 101.09 129.882 101.503 129.827 101.908C129.772 102.313 129.617 102.697 129.379 103.025C129.14 103.353 128.824 103.613 128.461 103.782C127.07 104.523 125.512 104.874 123.947 104.797C120.485 104.797 117.805 104.393 115.942 103.576C114.558 102.867 113.865 101.951 113.865 100.815C113.865 100.489 113.907 99.6368 114.024 98.2952V98.2526C113.706 98.3307 113.387 98.4159 113.111 98.4939C112.243 98.7231 111.354 98.8587 110.459 98.8986C109.51 98.8986 109.074 98.6572 109.074 98.1248C109.074 97.8835 109.351 97.635 109.905 97.3511C110.216 97.2336 110.522 97.0985 110.819 96.9465C110.41 96.8538 110.054 96.5985 109.829 96.2366C109.392 95.7468 108.998 94.4904 108.603 92.4957C108.338 91.8175 107.932 91.2069 107.412 90.7069C107.276 90.6153 107.159 90.4952 107.071 90.3546C106.983 90.214 106.924 90.0559 106.9 89.8906C106.9 89.6847 107.059 89.564 107.377 89.564C107.894 89.5595 108.409 89.6119 108.915 89.7202V89.7202ZM127.54 74.5223C129.008 75.0476 129.763 75.6226 129.763 76.226C129.763 77.1724 129.01 78.1071 127.506 79.0299C126.607 79.6351 125.567 79.9853 124.494 80.045C123.462 80.045 122.95 79.8391 122.95 79.3919C124.175 78.2136 124.812 77.3191 124.812 76.7087C124.812 76.304 123.898 76.0556 122.16 76.0556C121.724 76.0556 121.288 76.0982 120.852 76.1337C120.889 76.266 120.914 76.4014 120.928 76.5383C120.871 77.7148 120.711 78.8836 120.45 80.0308C120.449 80.0683 120.456 80.1057 120.469 80.1406C120.483 80.1755 120.503 80.2072 120.529 80.2337C120.555 80.2603 120.586 80.2812 120.62 80.2951C120.654 80.309 120.69 80.3157 120.727 80.3147C122.589 80.7619 123.538 81.2872 123.538 81.8977C123.552 82.2349 123.492 82.571 123.361 82.8808C123.23 83.1906 123.033 83.4661 122.783 83.6865C122.091 84.3963 120.408 84.9855 117.833 85.5534C117.811 85.559 117.788 85.5586 117.766 85.5524C117.744 85.5461 117.724 85.5343 117.708 85.5178C117.692 85.5014 117.681 85.481 117.674 85.4586C117.668 85.4363 117.668 85.4127 117.673 85.3902C119.301 83.6013 120.131 82.5082 120.131 82.061C118.906 82.061 118.31 81.4505 118.31 80.3147C118.334 79.3495 118.495 78.393 118.788 77.4753C118.96 77.1125 119.092 76.7317 119.183 76.3396C118.31 76.5028 117.438 76.6661 116.566 76.9074C116.57 77.5318 116.53 78.1557 116.448 78.7743C116.372 79.5836 116.33 81.2091 116.289 83.651C116.132 84.9098 115.617 85.6007 114.745 85.7238C113.914 85.5605 113.477 84.7868 113.477 83.3671C113.468 83.0944 113.538 82.8252 113.678 82.5933C113.678 82.3094 113.754 81.415 113.914 79.8746C113.99 79.0583 114.031 78.2916 114.073 77.6386C112.647 78.1284 111.573 78.4478 110.902 78.6111C111.198 79.0211 111.351 79.5209 111.338 80.0308C111.225 80.6566 111.053 81.2699 110.826 81.8622C110.69 82.2429 110.597 82.6382 110.549 83.0405C110.549 83.367 110.59 83.4877 110.708 83.4877C110.826 83.4877 111.58 82.714 112.73 81.1311H112.882C112.403 83.0416 111.795 84.9154 111.061 86.7388C111.001 86.9248 110.891 87.0899 110.744 87.2153C110.598 87.3407 110.419 87.4216 110.23 87.4487C109.399 87.4487 109.005 86.7389 109.005 85.2127C109.191 83.6231 109.482 82.0483 109.877 80.4993C109.998 79.9648 110.077 79.4211 110.112 78.8737V78.7104C108.762 78.7104 108.035 78.4691 107.931 77.9367C107.931 77.6954 109.593 76.9642 112.924 75.6581L113.872 75.289C113.624 74.8892 113.315 74.5322 112.958 74.2313C112.855 74.2093 112.761 74.1541 112.69 74.0737C112.619 73.9933 112.575 73.8919 112.563 73.7841C112.563 73.4576 112.799 73.2943 113.353 73.2943C114.176 73.2826 114.976 73.572 115.61 74.1106L116.046 74.5578C117.78 73.9957 119.581 73.6805 121.399 73.6208C123.476 73.6312 125.543 73.9345 127.54 74.5223V74.5223ZM118.857 69.6457C119.011 69.765 119.137 69.9181 119.226 70.0938C119.314 70.2694 119.364 70.4631 119.37 70.6608C119.349 70.9147 119.249 71.1549 119.085 71.3456C118.92 71.5363 118.699 71.6671 118.456 71.7184C117.635 72.0494 116.762 72.2273 115.88 72.2437C114.542 72.3306 113.205 72.0642 111.996 71.47C111.788 71.3933 111.603 71.2639 111.458 71.0938C111.312 70.9237 111.212 70.7185 111.165 70.4975C111.165 70.4194 111.241 70.3342 111.483 70.3342C112.716 70.4153 113.953 70.2637 115.132 69.887C115.995 69.5607 116.907 69.3948 117.826 69.3972C118.187 69.386 118.545 69.4716 118.864 69.6457H118.857ZM114.267 93.8231V93.4185C113.435 93.624 112.587 93.7475 111.733 93.7876C111.809 94.2774 111.892 94.7246 111.933 95.1293C111.95 95.622 111.897 96.1147 111.774 96.5916C112.723 96.1869 113.519 95.8817 114.232 95.5765C114.225 95.0015 114.267 94.391 114.267 93.8231Z" fill="white"/>
<path d="M147.911 82.0823C147.915 82.2226 147.89 82.3623 147.836 82.4912C147.782 82.6202 147.7 82.7352 147.598 82.8282C147.495 82.9212 147.374 82.9897 147.242 83.0289C147.111 83.0681 146.973 83.0769 146.837 83.0548C146.04 83.0506 145.244 83.1315 144.462 83.2962C144.441 83.3331 144.426 83.3741 144.421 83.4169C144.026 85.9368 143.784 87.967 143.728 89.4293C145.037 87.3991 146.54 84.9572 148.25 82.0752C148.326 82.0752 148.409 82.2385 148.409 82.565C147.704 85.7831 146.537 88.8762 144.947 91.7434C144.485 92.6378 144.049 93.4092 143.638 94.0575L143.756 99.5446C143.742 100.406 143.65 101.264 143.479 102.107C143.244 102.881 142.967 103.286 142.648 103.364C142.371 103.3 142.113 103.166 141.899 102.973C141.685 102.781 141.521 102.537 141.423 102.263C141.095 101.625 140.93 100.912 140.945 100.191C140.943 99.2403 141.01 98.2912 141.146 97.3512C141.025 97.4841 140.893 97.6053 140.751 97.7132C139.803 98.7283 138.965 99.2181 138.335 99.2181C137.185 99.2181 136.548 98.4018 136.472 96.6982C136.595 94.8662 137.123 93.0869 138.016 91.495C139.082 89.3654 140.239 86.9448 141.478 84.2616C140.269 84.8398 139.127 85.5541 138.072 86.3911C136.645 87.5269 135.378 88.18 134.305 88.258C133.787 88.2799 133.275 88.1387 132.837 87.8534C132.684 87.8274 132.54 87.7616 132.418 87.6621C132.297 87.5627 132.203 87.433 132.145 87.2855C132.138 87.2308 132.143 87.1751 132.161 87.1229C132.178 87.0706 132.207 87.0231 132.245 86.9841C132.283 86.945 132.33 86.9154 132.381 86.8976C132.432 86.8797 132.486 86.874 132.539 86.8809C133.846 86.8809 135.787 85.8256 138.362 83.715C139.426 82.8785 140.554 82.1307 141.734 81.479C141.658 81.1525 141.534 80.8259 141.457 80.5065C141.222 79.9881 141.05 79.4422 140.945 78.8809C140.935 78.7944 140.945 78.7067 140.974 78.6249C141.003 78.5431 141.05 78.4694 141.112 78.4099C141.174 78.3504 141.249 78.3068 141.331 78.2826C141.412 78.2584 141.499 78.2542 141.582 78.2705C142.314 78.3263 143.015 78.5947 143.604 79.0442C144.018 79.4106 144.321 79.8909 144.476 80.4284L145.466 80.3077C147.08 80.3716 147.911 80.9395 147.911 82.0823ZM146.166 71.5624C147.274 72.2154 147.869 72.7407 147.911 73.2305C147.952 73.7203 147.315 74.2456 146.166 74.8987C142.6 76.9714 140.301 77.9865 139.242 77.9865C138.646 77.9865 138.328 77.8232 138.328 77.4967C138.325 77.4548 138.331 77.4127 138.347 77.3738C138.362 77.3349 138.386 77.3003 138.417 77.2728C138.448 77.2452 138.485 77.2254 138.525 77.215C138.565 77.2046 138.606 77.2038 138.646 77.2128C139.477 77.1323 140.548 76.361 141.859 74.8987C142.891 73.7629 143.445 72.9466 143.445 72.4213C143.282 72.1321 143.174 71.8143 143.126 71.4843C143.126 71.1578 143.442 70.9945 144.075 70.9945C144.806 71.0042 145.524 71.1967 146.166 71.5553V71.5624ZM139.934 94.5189C140.412 93.9936 140.966 93.298 141.596 92.4888C141.637 91.6369 141.672 90.6999 141.714 89.6494C141.104 91.1732 140.495 92.794 139.886 94.5118L139.934 94.5189ZM167.042 87.2855C167.315 87.8392 167.451 88.4538 167.436 89.0743C167.436 90.3734 166.924 90.9838 165.892 90.9838C165.409 90.869 164.951 90.6619 164.542 90.3734C163.809 90.1542 163.049 90.0443 162.285 90.0469H162.202C162.126 91.7505 162.084 93.5393 162.042 95.3707C161.92 98.5365 161.561 101.688 160.969 104.798C160.734 105.735 160.533 106.217 160.332 106.217C160.014 106.217 159.82 105.692 159.737 104.677C159.654 103.662 159.501 98.9484 159.418 90.2101C158.185 90.3113 156.963 90.5299 155.769 90.8632C153.852 91.5913 152.07 92.65 150.5 93.9936C150.145 94.3753 149.663 94.6081 149.15 94.6467C148.544 94.6088 147.975 94.3314 147.564 93.8729C147.22 93.5805 146.978 93.1823 146.872 92.7372C146.872 92.4958 147.031 92.3752 147.384 92.3752C148.554 92.2757 149.683 91.8859 150.673 91.2394C152.508 90.1105 154.461 89.1984 156.496 88.5207C157.528 88.1941 158.518 87.8676 159.432 87.6263C159.391 83.5659 159.391 78.7673 159.391 73.2447C159.313 72.0623 159.113 70.8916 158.795 69.7523C158.795 69.4257 159.031 69.2625 159.55 69.2625C159.977 69.2344 160.404 69.3165 160.792 69.5012C161.181 69.686 161.518 69.9675 161.772 70.3201C162.264 71.2102 162.503 72.2229 162.465 73.2447C162.465 76.9004 162.382 81.4932 162.264 86.9803C163.349 86.7643 164.449 86.6291 165.553 86.5757C165.83 86.587 166.102 86.655 166.353 86.7756C166.604 86.8963 166.828 87.0673 167.014 87.2784L167.042 87.2855ZM155.963 76.6023C157.389 77.2554 158.144 77.9865 158.144 78.7319C158.144 79.0584 157.791 79.4417 157.113 79.747C155.992 80.3608 155.018 81.2213 154.26 82.2669C153.746 82.7559 153.421 83.4189 153.346 84.1338C153.37 84.3487 153.446 84.5541 153.566 84.7314C153.687 84.9087 153.85 85.0522 154.038 85.1489C154.987 85.8587 155.506 86.4905 155.506 86.9803C155.506 87.9173 154.004 88.4852 150.985 88.7265C151.385 88.4161 151.667 87.9715 151.781 87.4701V84.4603C151.781 83.3246 152.473 82.0611 153.962 80.5988C154.345 80.2267 154.608 79.7439 154.717 79.2146C154.57 78.5758 154.222 78.0044 153.727 77.589C152.536 76.7798 151.94 75.9634 151.94 75.2323C153.355 75.4029 154.722 75.8666 155.956 76.5952L155.963 76.6023Z" fill="white"/>
<path d="M185.238 79.8037C185.472 79.9028 185.677 80.0643 185.83 80.2714C185.983 80.4785 186.08 80.7238 186.11 80.982C186.145 81.1926 186.097 81.4086 185.978 81.5838C185.859 81.7589 185.678 81.8793 185.473 81.9191C184.442 82.0823 183.451 82.2456 182.579 82.4088C182.454 83.3382 182.387 84.2747 182.378 85.2128V86.3485C182.477 86.2583 182.584 86.1775 182.697 86.1071C182.843 85.909 183.027 85.7437 183.237 85.6216C183.448 85.4995 183.681 85.4231 183.922 85.3973C184.241 85.3973 184.4 85.518 184.4 85.7238C183.708 86.6963 183.015 87.5908 182.42 88.4071C182.42 90.5366 182.503 92.3467 182.621 93.8516C182.777 95.6404 182.856 97.266 182.856 98.7283C182.912 99.9292 182.652 101.124 182.101 102.185C181.623 102.959 181.153 103.364 180.675 103.364C180.247 103.383 179.823 103.275 179.454 103.052C179.085 102.829 178.788 102.5 178.598 102.107C177.171 99.5091 176.063 97.9616 175.35 97.4718C174.872 97.0685 174.299 96.8016 173.689 96.6981C173.445 96.6839 173.215 96.5757 173.046 96.3954C172.876 96.2151 172.779 95.976 172.775 95.7256C172.792 95.0894 173.038 94.4824 173.467 94.022C175.4 92.0759 177.451 90.2574 179.609 88.5774V85.3689C179.609 84.6591 179.609 83.864 179.65 83.0548C178.736 83.2961 177.864 83.5801 177.074 83.8285C175.698 84.383 174.261 84.7643 172.795 84.9643C172.471 84.9759 172.15 84.8993 171.864 84.7422C171.578 84.5851 171.338 84.3531 171.168 84.0699C170.825 83.7107 170.627 83.2313 170.614 82.7283C170.614 82.6076 170.774 82.5224 171.092 82.4443C172.754 82.3237 175.69 81.6351 179.851 80.4142V80.2509C180.086 78.3816 180.204 77.1985 180.204 76.7016C180.196 75.9919 180.062 75.2897 179.809 74.6289C179.556 74.2958 179.38 73.9071 179.297 73.4931C179.297 73.1666 179.655 72.7596 180.37 72.2722C180.771 71.939 181.247 71.7145 181.755 71.6191C182.821 71.6191 183.382 72.7549 183.458 74.9483C183.4 76.4603 183.241 77.9664 182.981 79.4559C183.137 79.4165 183.297 79.3904 183.458 79.3778C184.071 79.4112 184.674 79.5554 185.238 79.8037ZM175.544 95.896C176.84 96.4733 178.197 96.8949 179.588 97.1524V91.8285C178.363 93.2974 177.019 94.6581 175.572 95.896H175.544ZM200.831 76.5952C201.523 77.085 201.862 77.4896 201.862 77.8161C201.862 78.1426 201.509 78.4479 200.817 78.4479L195.43 79.8321C195.153 80.6484 194.834 81.5357 194.481 82.4301C194.481 82.6715 194.558 82.7567 194.758 82.7567C195.577 82.553 196.415 82.4434 197.258 82.4301C197.498 82.4323 197.734 82.4926 197.947 82.6061C198.16 82.7196 198.344 82.8831 198.483 83.0832C198.877 84.1442 199.04 85.2802 198.961 86.4124C198.964 88.876 198.407 91.3065 197.334 93.5109C197.016 94.0787 196.739 94.6112 196.503 95.0513C197.976 96.4472 199.663 97.5862 201.495 98.423C203.794 99.4807 205.38 100.375 206.169 101.142C206.615 101.505 206.912 102.027 207 102.604C206.958 103.094 206.404 103.314 205.297 103.413C203.919 103.356 202.558 103.095 201.253 102.64C199.22 101.742 197.387 100.428 195.866 98.778C195.429 98.4028 195.019 97.9947 194.641 97.557C194.08 98.1426 193.455 98.6596 192.778 99.0974C191.467 99.9306 189.958 100.38 188.416 100.396C187.593 100.433 186.776 100.252 186.041 99.8711C185.903 99.8319 185.778 99.7541 185.68 99.6463C185.582 99.5385 185.515 99.405 185.487 99.2607C186.706 99.323 187.924 99.1242 189.064 98.6769C190.204 98.2296 191.24 97.5435 192.106 96.6626C192.418 96.3289 192.71 95.9757 192.979 95.6049C191.125 93.3467 189.404 90.9762 187.827 88.5064C187.825 88.4844 187.828 88.4623 187.835 88.4414C187.842 88.4206 187.854 88.4017 187.869 88.3861C187.885 88.3704 187.903 88.3585 187.923 88.3511C187.944 88.3436 187.965 88.341 187.987 88.3432C190.451 89.4699 192.672 91.0864 194.523 93.0992C194.885 92.3654 195.191 91.6035 195.437 90.8205C195.941 89.2429 196.235 87.6024 196.309 85.9439C196.328 85.8713 196.331 85.7955 196.318 85.7217C196.305 85.6478 196.277 85.5776 196.236 85.5157C196.195 85.4539 196.141 85.4018 196.078 85.363C196.016 85.3242 195.946 85.2996 195.873 85.2908C195.452 85.3368 195.046 85.4748 194.682 85.6955C194.196 86.0245 193.636 86.22 193.055 86.2633C192.026 86.2633 191.511 85.5724 191.511 84.1906C191.586 83.0276 191.745 81.872 191.989 80.7336L190.285 81.1808C189.852 81.1859 189.421 81.1039 189.018 80.9395C188.926 80.8794 188.852 80.7948 188.803 80.6948C188.754 80.5948 188.733 80.4831 188.741 80.3716C188.759 80.2341 188.817 80.1055 188.909 80.0037C189.001 79.902 189.121 79.832 189.254 79.8037C190.317 79.5339 191.362 79.1948 192.383 78.7886C192.543 77.8161 192.778 76.801 193.02 75.6582C193.272 74.2881 193.443 72.9038 193.533 71.5126C193.533 71.392 193.457 71.0229 193.374 70.3769C193.374 70.093 193.45 69.9297 193.692 69.9297C194.495 69.9846 195.253 70.3292 195.832 70.9022C196.542 71.9006 196.878 73.1275 196.78 74.3591C196.754 75.1708 196.634 75.9764 196.42 76.7584C197.181 76.2392 198.048 75.9064 198.954 75.7859C199.642 75.8906 200.294 76.1687 200.851 76.5952H200.831Z" fill="white"/>
<defs>
<clipPath id="clip0">
<rect width="82" height="55" fill="white" transform="translate(55.9998 0.217163)"/>
</clipPath>
</defs>
</svg>
