<svg id="圖層_1" data-name="圖層 1" xmlns="http://www.w3.org/2000/svg" viewBox="0 0 197 157.1"><defs><style>.cls-1{fill:#fff;}.cls-2{fill:#243788;}.cls-3{fill:#aed06b;}</style></defs><title>LOGO-重繪</title><ellipse class="cls-1" cx="98.5" cy="67.5" rx="98.5" ry="67.5"/><polygon class="cls-1" points="99.98 157.1 72.24 109.07 127.71 109.07 99.98 157.1"/><path class="cls-2" d="M371.55,795.28a9,9,0,0,0-5.57,1.95,5.8,5.8,0,0,0-2.05,5,9,9,0,0,0,2.12,5.55,17.32,17.32,0,0,0,4.87,4q2.87,1.62,6.27,3.5t6.27,3.56a17.12,17.12,0,0,1,4.88,4.25,9.41,9.41,0,0,1,2.12,5.52q0.23,5.85-5.29,10.12t-14.74,4.63q-9.22.36-14.73-2.76T350,833.26a7.9,7.9,0,0,1,2.73-6.68,12,12,0,0,1,7.6-2.66,12.35,12.35,0,0,1,2.55.15,9.82,9.82,0,0,0-2.07,6.34,7.83,7.83,0,0,0,2.69,5.69,8.92,8.92,0,0,0,6.63,2.17,12.32,12.32,0,0,0,6.76-2.06,5.33,5.33,0,0,0,2.58-4.7,7.29,7.29,0,0,0-2.06-4.86,17.23,17.23,0,0,0-4.77-3.5q-2.82-1.43-6.18-3.28t-6.2-3.76a17.15,17.15,0,0,1-4.83-4.94,13,13,0,0,1-2.13-6.75,11,11,0,0,1,4.78-9.72q5-3.75,13.75-4.09t13.38,2.78q4.65,3.12,4.79,6.86a8.12,8.12,0,0,1-2.59,6.4,11.1,11.1,0,0,1-7.59,2.85,20.19,20.19,0,0,1-3.22-.13q3.53-3.41,3.39-7a6.59,6.59,0,0,0-2.6-5.41A9.06,9.06,0,0,0,371.55,795.28Z" transform="translate(-314.19 -746.82)"/><path class="cls-2" d="M396.62,841.83a4.82,4.82,0,0,1-2.08-4.24q-0.12-3,1.85-18.44t1.71-22q-0.26-6.54-1.41-8.5,7.83,0.21,10.46,4.76A30.74,30.74,0,0,1,420,790.24q7.08-.28,11.32,3.27a11.84,11.84,0,0,1,4.45,9q0.26,6.71-5.35,12.35a21.59,21.59,0,0,1-7.15,4.48,29.12,29.12,0,0,1-9.85,2,35.25,35.25,0,0,1-4.37-.09l-0.34-2.7,0.61,0q8.65-.34,13.57-6a12,12,0,0,0,3.21-8.26q-0.24-6.25-6.37-8-5.19-1.41-11.46,1.09v0.13q0.1,2.45-1.56,16.11a147.5,147.5,0,0,0-1.3,22.75,33.51,33.51,0,0,0,.71,6.3q-2.45.22-3.21,0.25Q398.58,843,396.62,841.83Z" transform="translate(-314.19 -746.82)"/><path class="cls-2" d="M461.91,818.78l-7.08.21q-3.25.13-4.94,0.25a120.4,120.4,0,0,0-.63,14.2q17.32-.67,25.64-3.36a11.91,11.91,0,0,1-3,7.27,9.22,9.22,0,0,1-6.54,2.8q-1.18,0-6.62-.27t-11.48-.08a65.17,65.17,0,0,0-11.76,1.52,8.43,8.43,0,0,1,3.35-4.92v-0.25q-0.13-3.35,1.47-15.35-1.82.63-3.13,1.12-0.2-1.36-.23-2-0.16-4.16,4.14-5.45,1-8.25,1.19-14.84-2.73,0-3.51-.92T437.87,795a14.33,14.33,0,0,1,.45-3.68,163.78,163.78,0,0,0,18.28.22,121.65,121.65,0,0,0,19.22-2.24q-0.78,6.56-9.13,8.19a117,117,0,0,1-14.63,1.63q0,0.69-1.58,14.48,4.43,0,6.12-.11,7-.27,9.87-2.44a17.43,17.43,0,0,1,.22,1.86Q466.92,818.58,461.91,818.78Z" transform="translate(-314.19 -746.82)"/><path class="cls-3" d="M412.77,759c-44.52,0-80.62,24.38-80.62,54.46s36.09,54.46,80.62,54.46,80.62-24.38,80.62-54.46S457.3,759,412.77,759Zm0,106c-39.62,0-71.73-21.69-71.73-48.46S373.16,768,412.77,768s71.73,21.69,71.73,48.46S452.39,864.95,412.77,864.95Z" transform="translate(-314.19 -746.82)"/></svg>